<svg width="51" height="60" viewBox="0 0 51 60" fill="none" xmlns="http://www.w3.org/2000/svg">
<path d="M0.946453 59.8595V50.3795C0.946453 48.0622 1.26245 46.0872 1.89445 44.4545C2.57912 42.8218 3.73779 41.3472 5.37045 40.0305C7.00312 38.6612 9.21512 37.3445 12.0065 36.0805L22.8295 31.1035C25.4628 29.8922 27.5431 28.3385 29.0705 26.4425C30.5978 24.4938 31.3615 21.9922 31.3615 18.9375C31.3615 15.2508 30.3345 12.3805 28.2805 10.3265C26.2265 8.2725 23.3298 7.2455 19.5905 7.2455C15.9038 7.2455 13.0071 8.2725 10.9005 10.3265C8.79379 12.3805 7.74045 15.2508 7.74045 18.9375H0.314453C0.314453 15.6195 0.99912 12.5648 2.36845 9.7735C3.79045 6.98217 5.92345 4.77017 8.76745 3.1375C11.6115 1.45216 15.2191 0.609497 19.5905 0.609497C23.9618 0.609497 27.5431 1.45216 30.3345 3.1375C33.1785 4.77017 35.2851 6.9295 36.6545 9.6155C38.0765 12.3015 38.7875 15.2245 38.7875 18.3845V19.4905C38.7875 23.6512 37.5761 27.1535 35.1535 29.9975C32.7835 32.8415 29.5708 35.1852 25.5155 37.0285L14.6925 42.0055C12.2698 43.1115 10.6371 44.2175 9.79445 45.3235C8.95179 46.4295 8.53045 47.9042 8.53045 49.7475V57.0155L6.47645 53.3815H39.4985V59.8595H0.946453Z" fill="url(#paint0_linear_120_1517)"/>
<path d="M49.9425 59.0195H43.8945V58.1075L44.7585 58.0475C44.4465 57.8555 44.2025 57.5995 44.0265 57.2795C43.8425 56.9515 43.7505 56.5955 43.7505 56.2115C43.7505 55.8995 43.7945 55.6195 43.8825 55.3715C43.9625 55.1155 44.0905 54.8915 44.2665 54.6995C44.4345 54.5075 44.6505 54.3515 44.9145 54.2315C44.5465 54.0235 44.2625 53.7395 44.0625 53.3795C43.8545 53.0115 43.7505 52.6195 43.7505 52.2035C43.7505 51.7395 43.8465 51.3355 44.0385 50.9915C44.2225 50.6395 44.5065 50.3715 44.8905 50.1875C45.2665 49.9955 45.7465 49.8995 46.3305 49.8995H49.9425V50.8955H46.4385C45.8305 50.8955 45.3745 51.0195 45.0705 51.2675C44.7665 51.5155 44.6145 51.8635 44.6145 52.3115C44.6145 52.6235 44.6985 52.9035 44.8665 53.1515C45.0265 53.3995 45.2625 53.5955 45.5745 53.7395C45.8865 53.8835 46.2705 53.9555 46.7265 53.9555H49.9425V54.9635H46.4385C45.8305 54.9635 45.3745 55.0875 45.0705 55.3355C44.7665 55.5835 44.6145 55.9355 44.6145 56.3915C44.6145 56.6955 44.6985 56.9715 44.8665 57.2195C45.0265 57.4595 45.2625 57.6515 45.5745 57.7955C45.8865 57.9395 46.2705 58.0115 46.7265 58.0115H49.9425V59.0195Z" fill="#E90682"/>
<path d="M49.9425 46.076H43.8945V45.068H49.9425V46.076ZM42.6105 45.572C42.6105 45.772 42.5465 45.94 42.4185 46.076C42.2825 46.204 42.1145 46.268 41.9145 46.268C41.7145 46.268 41.5545 46.204 41.4345 46.076C41.3065 45.94 41.2425 45.772 41.2425 45.572C41.2425 45.38 41.3065 45.216 41.4345 45.08C41.5545 44.944 41.7145 44.876 41.9145 44.876C42.1145 44.876 42.2825 44.944 42.4185 45.08C42.5465 45.216 42.6105 45.38 42.6105 45.572Z" fill="#E90682"/>
<path d="M49.9425 41.1292H43.8945V40.2172L44.9505 40.1692C44.5745 39.9772 44.2825 39.7052 44.0745 39.3532C43.8585 38.9932 43.7505 38.5852 43.7505 38.1292C43.7505 37.6572 43.8465 37.2492 44.0385 36.9052C44.2225 36.5612 44.5064 36.2932 44.8904 36.1012C45.2664 35.9092 45.7465 35.8132 46.3305 35.8132H49.9425V36.8212H46.4384C45.8304 36.8212 45.3744 36.9572 45.0704 37.2292C44.7664 37.4932 44.6145 37.8692 44.6145 38.3572C44.6145 38.6932 44.6985 38.9932 44.8665 39.2572C45.0265 39.5212 45.2625 39.7332 45.5745 39.8932C45.8785 40.0452 46.2585 40.1212 46.7145 40.1212H49.9425V41.1292Z" fill="#E90682"/>
<path d="M50.0865 29.8826C50.0865 30.3466 49.9945 30.7546 49.8105 31.1066C49.6265 31.4506 49.3425 31.7186 48.9585 31.9106C48.5745 32.0946 48.0945 32.1866 47.5185 32.1866H43.8945V31.1786H47.4104C48.0105 31.1786 48.4625 31.0466 48.7665 30.7826C49.0705 30.5186 49.2225 30.1466 49.2225 29.6666C49.2225 29.3306 49.1425 29.0266 48.9825 28.7546C48.8145 28.4826 48.5785 28.2706 48.2745 28.1186C47.9625 27.9586 47.5825 27.8786 47.1345 27.8786H43.8945V26.8706H49.9425V27.7826L48.8865 27.8426C49.2625 28.0266 49.5585 28.2986 49.7745 28.6586C49.9825 29.0186 50.0865 29.4266 50.0865 29.8826Z" fill="#E90682"/>
<path d="M49.9425 20.6637C49.9425 21.0237 49.8865 21.3357 49.7745 21.5997C49.6625 21.8637 49.4745 22.0677 49.2105 22.2117C48.9385 22.3477 48.5745 22.4157 48.1185 22.4157H44.7465V23.4717H43.8945V22.4157L42.4305 22.2837V21.4077H43.8945V19.6557H44.7465V21.4077H48.1185C48.4945 21.4077 48.7505 21.3317 48.8865 21.1797C49.0145 21.0277 49.0784 20.7597 49.0784 20.3757V19.7277H49.9425V20.6637Z" fill="#E90682"/>
<path d="M50.0865 13.6925C50.0865 14.2605 49.9545 14.7645 49.6905 15.2045C49.4265 15.6365 49.0585 15.9765 48.5865 16.2245C48.1065 16.4725 47.5504 16.5965 46.9184 16.5965C46.2784 16.5965 45.7225 16.4765 45.2505 16.2365C44.7785 15.9885 44.4105 15.6445 44.1465 15.2045C43.8824 14.7565 43.7505 14.2445 43.7505 13.6685C43.7505 13.0765 43.8824 12.5765 44.1465 12.1685C44.4104 11.7525 44.7584 11.4365 45.1904 11.2205C45.6144 10.9965 46.0825 10.8845 46.5945 10.8845C46.6745 10.8845 46.7585 10.8845 46.8465 10.8845C46.9345 10.8845 47.0345 10.8885 47.1465 10.8965V15.8405H46.3665V11.8685C45.8145 11.8925 45.3824 12.0765 45.0704 12.4205C44.7584 12.7565 44.6025 13.1805 44.6025 13.6925C44.6025 14.0365 44.6824 14.3565 44.8424 14.6525C44.9944 14.9405 45.2225 15.1725 45.5265 15.3485C45.8225 15.5245 46.1945 15.6125 46.6425 15.6125H46.9785C47.4745 15.6125 47.8905 15.5245 48.2265 15.3485C48.5625 15.1645 48.8145 14.9285 48.9825 14.6405C49.1505 14.3445 49.2345 14.0285 49.2345 13.6925C49.2345 13.2685 49.1425 12.9205 48.9585 12.6485C48.7665 12.3685 48.5104 12.1685 48.1904 12.0485V11.0525C48.5504 11.1485 48.8744 11.3165 49.1624 11.5565C49.4504 11.7965 49.6785 12.0965 49.8465 12.4565C50.0065 12.8085 50.0865 13.2205 50.0865 13.6925Z" fill="#E90682"/>
<path d="M50.0864 5.08419C50.0864 5.58819 50.0024 6.02819 49.8344 6.40419C49.6664 6.77219 49.4345 7.06819 49.1385 7.29219C48.8345 7.50819 48.4784 7.64019 48.0704 7.68819V6.65619C48.2784 6.61619 48.4704 6.53219 48.6465 6.40419C48.8225 6.27619 48.9664 6.10419 49.0784 5.88819C49.1824 5.66419 49.2345 5.39219 49.2345 5.07219C49.2345 4.79219 49.1944 4.56019 49.1144 4.37619C49.0264 4.19219 48.9104 4.05619 48.7664 3.96819C48.6224 3.87219 48.4665 3.82419 48.2985 3.82419C48.0505 3.82419 47.8625 3.88419 47.7345 4.00419C47.6065 4.11619 47.5065 4.28419 47.4345 4.50819C47.3545 4.73219 47.2864 5.00419 47.2304 5.32419C47.1824 5.58819 47.1185 5.84819 47.0385 6.10419C46.9585 6.36019 46.8545 6.58819 46.7265 6.78819C46.5905 6.98819 46.4265 7.14819 46.2345 7.26819C46.0425 7.38019 45.8065 7.43619 45.5265 7.43619C45.1825 7.43619 44.8784 7.34819 44.6144 7.17219C44.3424 6.99619 44.1305 6.74419 43.9785 6.41619C43.8265 6.08019 43.7505 5.69219 43.7505 5.25219C43.7505 4.60419 43.9064 4.08019 44.2184 3.68019C44.5304 3.28019 44.9825 3.04419 45.5745 2.97219V3.96819C45.2705 4.00819 45.0345 4.14019 44.8665 4.36419C44.6905 4.58019 44.6025 4.88019 44.6025 5.26419C44.6025 5.64019 44.6785 5.92819 44.8305 6.12819C44.9825 6.32019 45.1825 6.41619 45.4305 6.41619C45.5905 6.41619 45.7344 6.36419 45.8624 6.26019C45.9824 6.14819 46.0864 5.98819 46.1744 5.78019C46.2624 5.56419 46.3344 5.30019 46.3904 4.98819C46.4624 4.58819 46.5585 4.22419 46.6785 3.89619C46.7985 3.56819 46.9784 3.30419 47.2184 3.10419C47.4504 2.89619 47.7825 2.79219 48.2145 2.79219C48.5905 2.79219 48.9185 2.88819 49.1985 3.08019C49.4785 3.26419 49.6985 3.52819 49.8585 3.87219C50.0105 4.21619 50.0864 4.62019 50.0864 5.08419Z" fill="#E90682"/>
<defs>
<linearGradient id="paint0_linear_120_1517" x1="8.85854" y1="9.63089" x2="21.1028" y2="54.8926" gradientUnits="userSpaceOnUse">
<stop stop-color="#831BEE"/>
<stop offset="1" stop-color="#FF016C"/>
</linearGradient>
</defs>
</svg>
