<svg width="30" height="23" viewBox="0 0 30 23" fill="none" xmlns="http://www.w3.org/2000/svg">
<g clip-path="url(#clip0_121_1992)">
<path d="M0 0H30V7.66667H0V0Z" fill="#FF9933"/>
<path d="M0 7.6665H30V15.3332H0V7.6665Z" fill="white"/>
<path d="M0 15.3335H30V23.0002H0V15.3335Z" fill="#128807"/>
<path d="M15 14.5664C16.6569 14.5664 18 13.1934 18 11.4998C18 9.8061 16.6569 8.43311 15 8.43311C13.3431 8.43311 12 9.8061 12 11.4998C12 13.1934 13.3431 14.5664 15 14.5664Z" fill="#000088"/>
<path d="M15 14.1831C16.4497 14.1831 17.625 12.9817 17.625 11.4997C17.625 10.0178 16.4497 8.81641 15 8.81641C13.5503 8.81641 12.375 10.0178 12.375 11.4997C12.375 12.9817 13.5503 14.1831 15 14.1831Z" fill="white"/>
<path d="M14.9996 12.0367C15.2896 12.0367 15.5246 11.7964 15.5246 11.5C15.5246 11.2037 15.2896 10.9634 14.9996 10.9634C14.7097 10.9634 14.4746 11.2037 14.4746 11.5C14.4746 11.7964 14.7097 12.0367 14.9996 12.0367Z" fill="#000088"/>
<path d="M17.584 11.9879C17.6579 11.9979 17.7257 11.9447 17.7354 11.8691C17.7452 11.7936 17.6931 11.7242 17.6192 11.7143C17.5453 11.7044 17.4775 11.7575 17.4677 11.8331C17.458 11.9087 17.51 11.978 17.584 11.9879Z" fill="#000088"/>
<path d="M14.9992 14.1833L15.0892 12.5733L14.9992 11.8066L14.9092 12.5733L14.9992 14.1833Z" fill="#000088"/>
<path d="M17.3735 12.655C17.4426 12.6844 17.5216 12.6514 17.5498 12.5813C17.5781 12.5111 17.545 12.4304 17.4758 12.401C17.4066 12.3715 17.3277 12.4045 17.2994 12.4746C17.2711 12.5448 17.3043 12.6255 17.3735 12.655Z" fill="#000088"/>
<path d="M14.3221 14.0915L14.8162 12.5612L14.9212 11.7967L14.6397 12.5127L14.3221 14.0915Z" fill="#000088"/>
<path d="M17 13.2434C17.0594 13.2901 17.1441 13.2791 17.1892 13.219C17.2343 13.1588 17.2227 13.0721 17.1633 13.0255C17.1038 12.9788 17.0191 12.9897 16.974 13.0499C16.9289 13.11 16.9405 13.1967 17 13.2434Z" fill="#000088"/>
<path d="M13.6885 13.8234L14.5537 12.4764L14.8493 11.7663L14.3961 12.3833L13.6885 13.8234Z" fill="#000088"/>
<path d="M16.4914 13.7131C16.5371 13.7738 16.6218 13.7856 16.6807 13.7395C16.7396 13.6933 16.7504 13.6067 16.7047 13.546C16.6591 13.4853 16.5743 13.4734 16.5154 13.5196C16.4565 13.5657 16.4458 13.6523 16.4914 13.7131Z" fill="#000088"/>
<path d="M13.1449 13.3969L14.3221 12.3249L14.7878 11.7175L14.1937 12.1936L13.1449 13.3969Z" fill="#000088"/>
<path d="M15.8777 14.033C15.9059 14.1031 15.9849 14.136 16.0541 14.1065C16.1232 14.0771 16.1565 13.9963 16.1282 13.9262C16.1 13.8561 16.0211 13.8232 15.9519 13.8527C15.8827 13.8822 15.8494 13.9629 15.8777 14.033Z" fill="#000088"/>
<path d="M12.7262 12.8426L14.1353 12.1152L14.7407 11.6525L14.0464 11.9576L12.7262 12.8426Z" fill="#000088"/>
<path d="M15.2082 14.1793C15.2176 14.2545 15.2854 14.3072 15.3596 14.2969C15.4339 14.2867 15.4864 14.2173 15.477 14.1421C15.4676 14.0669 15.3998 14.0142 15.3255 14.0245C15.2513 14.0347 15.1988 14.104 15.2082 14.1793Z" fill="#000088"/>
<path d="M12.4647 12.1955L14.0095 11.8646L14.7113 11.5778L13.9638 11.6895L12.4647 12.1955Z" fill="#000088"/>
<path d="M14.5238 14.1431C14.5138 14.219 14.5653 14.2883 14.6389 14.2979C14.7126 14.3076 14.7804 14.2538 14.7904 14.1779C14.8005 14.1021 14.7489 14.0327 14.6753 14.0231C14.6017 14.0135 14.5339 14.0672 14.5238 14.1431Z" fill="#000088"/>
<path d="M12.3766 11.5056L13.9506 11.5849L14.7008 11.4948L13.9514 11.4117L12.3766 11.5056Z" fill="#000088"/>
<path d="M13.871 13.9265C13.8423 13.997 13.8748 14.0777 13.9436 14.1068C14.0123 14.1358 14.0913 14.1021 14.12 14.0316C14.1486 13.961 14.1161 13.8803 14.0474 13.8513C13.9786 13.8222 13.8997 13.8559 13.871 13.9265Z" fill="#000088"/>
<path d="M12.4655 10.8063L13.9631 11.3117L14.7109 11.4201L14.0101 11.1326L12.4655 10.8063Z" fill="#000088"/>
<path d="M13.2929 13.5438C13.2478 13.604 13.2595 13.6906 13.3189 13.7373C13.3783 13.784 13.4631 13.7731 13.5082 13.7129C13.5533 13.6528 13.5417 13.5661 13.4822 13.5195C13.4228 13.4728 13.338 13.4837 13.2929 13.5438Z" fill="#000088"/>
<path d="M12.7261 10.1577L14.0464 11.0427L14.7407 11.3478L14.1353 10.8851L12.7261 10.1577Z" fill="#000088"/>
<path d="M12.8345 13.0226C12.7756 13.0687 12.7649 13.1553 12.8106 13.2161C12.8563 13.2769 12.941 13.2887 12.9999 13.2426C13.0587 13.1965 13.0694 13.1099 13.0237 13.0492C12.9781 12.9884 12.8933 12.9765 12.8345 13.0226Z" fill="#000088"/>
<path d="M13.1433 9.60175L14.1948 10.8055L14.7886 11.2836L14.3208 10.6767L13.1433 9.60175Z" fill="#000088"/>
<path d="M12.5216 12.3977C12.4529 12.4266 12.4205 12.5073 12.4493 12.578C12.478 12.6486 12.557 12.6824 12.6257 12.6535C12.6943 12.6245 12.7267 12.5438 12.6979 12.4732C12.6692 12.4025 12.5902 12.3687 12.5216 12.3977Z" fill="#000088"/>
<path d="M13.6867 9.17553L14.3977 10.616L14.8504 11.2346L14.5523 10.5248L13.6867 9.17553Z" fill="#000088"/>
<path d="M12.3774 11.7114C12.3037 11.7211 12.252 11.7904 12.262 11.8662C12.2719 11.942 12.3397 11.9956 12.4134 11.9859C12.4871 11.9761 12.5388 11.9068 12.5289 11.831C12.5189 11.7552 12.4511 11.7017 12.3774 11.7114Z" fill="#000088"/>
<path d="M14.3182 8.90736L14.641 10.4864L14.9218 11.2037L14.8131 10.4394L14.3182 8.90736Z" fill="#000088"/>
<path d="M12.4143 11.0136C12.3401 11.0034 12.2723 11.056 12.2629 11.1313C12.2535 11.2065 12.306 11.2758 12.3802 11.2861C12.4545 11.2964 12.5223 11.2437 12.5317 11.1685C12.5411 11.0932 12.4886 11.0239 12.4143 11.0136Z" fill="#000088"/>
<path d="M14.9937 8.81811L14.9158 10.4271L15.004 11.1939L15.0856 10.428L14.9937 8.81811Z" fill="#000088"/>
<path d="M12.6256 10.347C12.5564 10.3176 12.4775 10.3505 12.4492 10.4207C12.4209 10.4908 12.4541 10.5715 12.5232 10.601C12.5924 10.6304 12.6713 10.5974 12.6996 10.5273C12.7279 10.4572 12.6947 10.3764 12.6256 10.347Z" fill="#000088"/>
<path d="M15.678 8.91045L15.1838 10.4407L15.0788 11.2052L15.3603 10.4892L15.678 8.91045Z" fill="#000088"/>
<path d="M12.9981 9.75811C12.9386 9.71142 12.8539 9.72234 12.8088 9.7825C12.7637 9.84267 12.7753 9.9293 12.8348 9.976C12.8942 10.0227 12.9789 10.0118 13.024 9.95161C13.0691 9.89144 13.0575 9.80481 12.9981 9.75811Z" fill="#000088"/>
<path d="M16.3105 9.17805L15.4453 10.525L15.1497 11.2352L15.603 10.6181L16.3105 9.17805Z" fill="#000088"/>
<path d="M13.5084 9.28798C13.4627 9.22721 13.378 9.21533 13.3191 9.26143C13.2603 9.30753 13.2496 9.39416 13.2952 9.45492C13.3409 9.51568 13.4257 9.52757 13.4845 9.48147C13.5434 9.43537 13.5541 9.34874 13.5084 9.28798Z" fill="#000088"/>
<path d="M16.8548 9.60417L15.6777 10.676L15.2121 11.2834L15.8063 10.8074L16.8548 9.60417Z" fill="#000088"/>
<path d="M14.1214 8.96699C14.0931 8.89689 14.0142 8.86398 13.945 8.89346C13.8758 8.92295 13.8426 9.00368 13.8708 9.07377C13.899 9.14386 13.978 9.17678 14.0472 9.14729C14.1164 9.11781 14.1496 9.03708 14.1214 8.96699Z" fill="#000088"/>
<path d="M17.2738 10.1574L15.8647 10.8848L15.2593 11.3475L15.9536 11.0424L17.2738 10.1574Z" fill="#000088"/>
<path d="M14.7918 8.82023C14.7824 8.74498 14.7146 8.69231 14.6404 8.70258C14.5661 8.71285 14.5136 8.78217 14.523 8.85742C14.5324 8.93266 14.6002 8.98533 14.6745 8.97506C14.7487 8.96479 14.8012 8.89547 14.7918 8.82023Z" fill="#000088"/>
<path d="M17.5353 10.8035L15.9905 11.1344L15.2887 11.4212L16.0362 11.3095L17.5353 10.8035Z" fill="#000088"/>
<path d="M15.4751 8.85665C15.4852 8.78072 15.4337 8.7114 15.3602 8.70182C15.2866 8.69225 15.2188 8.74604 15.2087 8.82198C15.1986 8.89791 15.2501 8.96724 15.3236 8.97681C15.3972 8.98639 15.465 8.93259 15.4751 8.85665Z" fill="#000088"/>
<path d="M17.6233 11.4937L16.0495 11.416L15.2993 11.5059L16.0485 11.5879L17.6233 11.4937Z" fill="#000088"/>
<path d="M16.1289 9.07324C16.1576 9.00263 16.1252 8.9219 16.0565 8.89293C15.9878 8.86397 15.9088 8.89772 15.8801 8.96834C15.8514 9.03895 15.8838 9.11967 15.9525 9.14864C16.0212 9.17761 16.1002 9.14385 16.1289 9.07324Z" fill="#000088"/>
<path d="M17.5344 12.1929L16.0371 11.6876L15.2892 11.5796L15.9899 11.8673L17.5344 12.1929Z" fill="#000088"/>
<path d="M16.7034 9.45518C16.7489 9.39456 16.738 9.30793 16.679 9.26169C16.62 9.21544 16.5352 9.22709 16.4897 9.28771C16.4441 9.34832 16.4551 9.43495 16.5141 9.4812C16.5731 9.52744 16.6578 9.51579 16.7034 9.45518Z" fill="#000088"/>
<path d="M17.2711 12.8407L15.9528 11.9562L15.2582 11.6533L15.8622 12.1164L17.2711 12.8407Z" fill="#000088"/>
<path d="M17.1628 9.97593C17.2221 9.92938 17.2335 9.84275 17.1883 9.78243C17.143 9.72212 17.0583 9.71096 16.999 9.75751C16.9397 9.80406 16.9283 9.89069 16.9735 9.951C17.0188 10.0113 17.1035 10.0225 17.1628 9.97593Z" fill="#000088"/>
<path d="M16.8538 13.3967L15.8045 12.1933L15.2105 11.7168L15.6766 12.3241L16.8538 13.3967Z" fill="#000088"/>
<path d="M17.4758 10.6013C17.5449 10.572 17.5778 10.4913 17.5494 10.421C17.521 10.3507 17.442 10.3175 17.373 10.3468C17.304 10.3761 17.2711 10.4569 17.2995 10.5271C17.3278 10.5974 17.4068 10.6306 17.4758 10.6013Z" fill="#000088"/>
<path d="M16.3104 13.8235L15.6017 12.3833L15.1486 11.7658L15.4451 12.4758L16.3104 13.8235Z" fill="#000088"/>
<path d="M17.619 11.2871C17.6931 11.277 17.7454 11.2076 17.7358 11.1322C17.7262 11.0568 17.6584 11.0039 17.5843 11.0139C17.5102 11.024 17.458 11.0934 17.4676 11.1688C17.4772 11.2442 17.545 11.2972 17.619 11.2871Z" fill="#000088"/>
<path d="M15.6783 14.0916L15.359 12.5127L15.0777 11.7963L15.184 12.5607L15.6783 14.0916Z" fill="#000088"/>
</g>
<defs>
<clipPath id="clip0_121_1992">
<rect width="30" height="23" rx="6" fill="white"/>
</clipPath>
</defs>
</svg>
