<svg width="136" height="58" viewBox="0 0 136 58" fill="none" xmlns="http://www.w3.org/2000/svg">
<g clip-path="url(#clip0_120_790)">
<mask id="mask0_120_790" style="mask-type:luminance" maskUnits="userSpaceOnUse" x="0" y="0" width="136" height="58">
<path d="M135.937 0.75H0V57.6038H135.937V0.75Z" fill="white"/>
</mask>
<g mask="url(#mask0_120_790)">
<path d="M99.2729 49.7981C98.6351 50.2236 97.8821 50.4384 97.1177 50.4131H93.374V41.8144H97.0639C97.978 41.8144 98.6951 42.0788 99.2172 42.6169C99.4026 42.8119 99.5475 43.0425 99.6432 43.2949C99.7389 43.5474 99.7837 43.8167 99.7746 44.0869C99.7746 44.9325 99.2525 45.5869 98.4146 45.9319V45.9656C99.4922 46.14 100.144 46.9313 100.144 47.985C100.151 48.7875 99.86 49.3918 99.2729 49.7981ZM96.6718 43.6706H95.453V45.2194H96.6941C97.3035 45.2194 97.651 44.9213 97.651 44.4394C97.651 43.9219 97.324 43.6706 96.6718 43.6706ZM95.453 46.9313V48.5456H97.0416C97.6082 48.5456 98.0095 48.2606 98.0095 47.7338C98.0095 47.2069 97.5971 46.9313 97.0304 46.9313H95.453Z" fill="#1E2339"/>
<path d="M103.243 50.4131H101.099V41.8144H104.592C105.56 41.8144 106.332 42.045 106.91 42.5175C107.488 42.99 107.78 43.6706 107.78 44.58C107.78 45.8925 107.094 46.6988 106.083 47.0606L107.973 50.4131H105.647L103.939 47.3944H103.243V50.4131ZM103.243 45.5381H104.428C105.201 45.5381 105.626 45.2194 105.626 44.6494C105.626 44.0794 105.255 43.6725 104.419 43.6725H103.243V45.5381Z" fill="#1E2339"/>
<path d="M111 50.4131H108.847V41.8144H111V50.4131Z" fill="#1E2339"/>
<path d="M112.432 41.8144H115.25C116.644 41.8144 117.786 42.1894 118.678 42.9225C119.57 43.6556 120.016 44.7131 120.016 46.0856C120.036 46.9239 119.809 47.7495 119.364 48.4575C118.503 49.77 117.047 50.4131 115.261 50.4131H112.432V41.8144ZM114.576 48.4031H115.261C115.927 48.4324 116.58 48.2181 117.101 47.7994C117.573 47.3944 117.82 46.8319 117.82 46.0969C117.82 45.3619 117.582 44.8125 117.091 44.4094C116.578 43.9935 115.932 43.779 115.274 43.8056H114.568L114.576 48.4031Z" fill="#1E2339"/>
<path d="M123.318 47.865C123.523 48.1016 123.778 48.2891 124.064 48.4144C124.35 48.5394 124.66 48.5991 124.971 48.5888C125.38 48.5918 125.783 48.4823 126.135 48.2719C126.296 48.1898 126.438 48.0737 126.551 47.9312C126.663 47.7889 126.744 47.6237 126.789 47.4469H124.34V45.7069H129.029V46.5413C129.041 47.0696 128.947 47.595 128.752 48.0857C128.558 48.5764 128.267 49.0224 127.898 49.3969C127.155 50.1469 126.179 50.5388 124.971 50.5388C124.383 50.5564 123.797 50.4534 123.249 50.2363C122.701 50.0192 122.202 49.692 121.783 49.275C120.964 48.4356 120.506 47.3033 120.511 46.125C120.515 44.9468 120.98 43.8178 121.806 42.9844C122.215 42.5593 122.707 42.2235 123.25 41.9978C123.793 41.772 124.377 41.6612 124.964 41.6719C125.786 41.6648 126.593 41.8888 127.296 42.3188C127.976 42.7247 128.504 43.3464 128.797 44.0869L126.98 44.9869C126.831 44.5676 126.551 44.2086 126.182 43.9631C125.814 43.7177 125.377 43.5994 124.936 43.6256C124.633 43.6194 124.332 43.6779 124.052 43.797C123.773 43.9163 123.521 44.0936 123.314 44.3175C122.873 44.7964 122.638 45.4324 122.662 46.0856C122.649 46.7411 122.884 47.3771 123.318 47.865Z" fill="#1E2339"/>
<path d="M135.905 43.7363H132.076V45.1444H135.558V46.9988H132.076V48.4819H135.938V50.4131H129.954V41.8144H135.899L135.905 43.7363Z" fill="#1E2339"/>
<path d="M17.4398 19.8786C17.4398 21.9317 18.1439 23.6698 19.5782 25.0648C20.2656 25.7469 21.0805 26.2841 21.9755 26.6454C22.8704 27.0066 23.8278 27.1845 24.7915 27.1686C25.7528 27.1896 26.7081 27.0139 27.6003 26.6524C28.4923 26.2907 29.3027 25.7507 29.9826 25.0648C31.415 23.6417 32.121 21.9054 32.121 19.8261C32.121 17.7467 31.415 16.063 29.9826 14.668C29.3022 13.9925 28.4951 13.4609 27.6085 13.1041C26.7219 12.7474 25.7738 12.5728 24.8194 12.5905C23.8551 12.5745 22.8974 12.7525 22.002 13.114C21.1067 13.4755 20.2916 14.0133 19.6042 14.6961C18.9041 15.3589 18.3497 16.1627 17.9769 17.0554C17.604 17.9482 17.421 18.91 17.4398 19.8786ZM21.765 16.7211C22.549 15.853 23.5653 15.4311 24.7897 15.4311C26.014 15.4311 27.034 15.853 27.7883 16.7211C28.5687 17.5813 28.9895 18.7126 28.9625 19.8786C28.9865 21.039 28.5774 22.1661 27.8162 23.0361C27.06 23.9061 26.0419 24.3261 24.8175 24.3261C24.2494 24.3418 23.6844 24.2325 23.1621 24.0058C22.6399 23.7791 22.1726 23.4407 21.7928 23.0136C21.0155 22.1396 20.5958 21.0004 20.6186 19.8261C20.5906 18.6808 21.0012 17.5686 21.765 16.7211Z" fill="#831BEE"/>
<path d="M38.4271 27.2211C40.1996 27.2211 41.6079 26.4842 42.678 25.0367V25.4117C42.678 25.8165 42.8373 26.2048 43.121 26.4909C43.4047 26.7773 43.7893 26.9379 44.1904 26.9379C44.5915 26.9379 44.9761 26.7773 45.2598 26.4909C45.5433 26.2048 45.7027 25.8165 45.7027 25.4117V14.4449C45.6888 14.0388 45.5192 13.654 45.2295 13.3717C44.9399 13.0894 44.5531 12.9316 44.1504 12.9316C43.7478 12.9316 43.3608 13.0894 43.0714 13.3717C42.7817 13.654 42.6121 14.0388 42.5981 14.4449V20.6942C42.5981 22.8261 41.3478 24.2567 39.3914 24.2567C37.3309 24.2567 36.3146 22.8598 36.3146 20.7561V14.4449C36.3146 14.0297 36.1511 13.6314 35.8602 13.3378C35.5692 13.0442 35.1746 12.8793 34.7633 12.8793C34.3518 12.8793 33.9571 13.0442 33.6662 13.3378C33.3754 13.6314 33.2119 14.0297 33.2119 14.4449V21.5192C33.2119 24.8792 35.0624 27.2211 38.4271 27.2211Z" fill="#831BEE"/>
<path d="M49.449 26.9327C49.6526 26.9327 49.8544 26.8922 50.0424 26.8134C50.2306 26.7347 50.4016 26.6194 50.5454 26.4739C50.6894 26.3286 50.8034 26.1559 50.8811 25.9659C50.959 25.776 50.9989 25.5726 50.9985 25.3671V19.8021C50.9985 17.3533 52.2526 15.9583 54.6252 15.9583H54.7441C54.8444 15.96 54.944 15.9415 55.0373 15.9039C55.1304 15.8664 55.2153 15.8104 55.2866 15.7393C55.3581 15.6683 55.4148 15.5835 55.4535 15.4901C55.4919 15.3966 55.5118 15.2964 55.5114 15.1951V13.5076C55.512 13.3073 55.4343 13.1149 55.2952 12.9721C55.156 12.8292 54.9667 12.7475 54.7683 12.7445H54.759C53.0645 12.7445 51.787 13.5345 50.9261 15.1145V14.402C50.9261 14.2016 50.887 14.0031 50.8111 13.8179C50.7351 13.6328 50.6236 13.4645 50.4831 13.3228C50.3427 13.1811 50.176 13.0686 49.9925 12.9919C49.8091 12.9152 49.6123 12.8758 49.4137 12.8758C49.2151 12.8758 49.0185 12.9152 48.835 12.9919C48.6516 13.0686 48.4848 13.1811 48.3443 13.3228C48.204 13.4645 48.0925 13.6328 48.0166 13.8179C47.9406 14.0031 47.9014 14.2016 47.9014 14.402V25.3633C47.901 25.5688 47.9406 25.7726 48.018 25.9628C48.0955 26.1529 48.2094 26.3258 48.3532 26.4714C48.4968 26.6171 48.6676 26.7328 48.8556 26.8119C49.0438 26.8911 49.2454 26.9321 49.449 26.9327Z" fill="#831BEE"/>
<path d="M30.3315 49.5525V31.2956C30.3315 30.9814 30.208 30.6799 29.9876 30.4577C29.7674 30.2355 29.4689 30.1106 29.1573 30.1106H25.6124C25.3859 30.1108 25.1641 30.1772 24.9738 30.3015C24.7837 30.426 24.6333 30.6032 24.5404 30.8119L20.3545 40.2694C20.2618 40.4777 20.1114 40.6545 19.9214 40.7786C19.7313 40.9028 19.5098 40.9688 19.2834 40.9688C19.0571 40.9688 18.8356 40.9028 18.6455 40.7786C18.4556 40.6545 18.3051 40.4777 18.2123 40.2694L13.9633 30.8063C13.8704 30.5989 13.7202 30.423 13.5307 30.2996C13.3412 30.1763 13.1205 30.1106 12.895 30.1106H9.44667C9.13526 30.1106 8.8366 30.2355 8.61638 30.4577C8.39618 30.6799 8.27246 30.9814 8.27246 31.2956V49.5525C8.27246 49.8668 8.39618 50.1683 8.61638 50.3905C8.8366 50.6126 9.13526 50.7375 9.44667 50.7375H11.2154C11.5268 50.7375 11.8255 50.6126 12.0457 50.3905C12.2659 50.1683 12.3896 49.8668 12.3896 49.5525V37.8319L17.7776 50.04C17.8697 50.2493 18.02 50.4272 18.2103 50.5521C18.4006 50.6768 18.6227 50.7431 18.8495 50.7431H19.6986C19.9258 50.7431 20.1482 50.6768 20.3387 50.5519C20.5293 50.4272 20.68 50.2493 20.7725 50.04L26.1865 37.755V49.5675C26.1865 49.7231 26.217 49.8773 26.276 50.0209C26.3349 50.1647 26.4215 50.2954 26.5306 50.4055C26.6394 50.5155 26.7689 50.6027 26.9114 50.6623C27.0539 50.7218 27.2065 50.7525 27.3607 50.7525H29.1554C29.3111 50.7527 29.4653 50.7218 29.609 50.6614C29.7526 50.601 29.8828 50.5125 29.9923 50.4008C30.1017 50.2892 30.1881 50.1566 30.2464 50.011C30.3046 49.8655 30.3336 49.7095 30.3315 49.5525Z" fill="#1E2339"/>
<path d="M34.0277 49.8167C34.9158 50.5798 36.038 50.9755 37.3961 50.9755C39.2763 50.9755 40.6326 50.263 41.4947 48.8155V50.7373H44.5436V41.7804C44.5645 40.914 44.4044 40.0528 44.0735 39.2529C43.2114 37.3273 41.4631 36.3804 38.8527 36.3804C36.6065 36.3804 34.8972 37.1192 33.7379 38.6079C33.624 38.7521 33.5394 38.9173 33.4889 39.0943C33.4384 39.2713 33.423 39.4568 33.4434 39.6398C33.4638 39.8229 33.5198 40.0001 33.608 40.1614C33.6964 40.3226 33.8153 40.4648 33.958 40.5795C34.1007 40.6944 34.2644 40.7798 34.44 40.8308C34.6154 40.8818 34.7989 40.8975 34.9805 40.8769C35.1618 40.8561 35.3374 40.7996 35.4971 40.7106C35.6569 40.6215 35.7978 40.5013 35.9116 40.3573C36.6139 39.5117 37.5838 39.0936 38.7747 39.0936C40.523 39.0936 41.5151 40.0423 41.5151 41.2011C41.5151 41.9923 41.0711 42.3861 40.2146 42.3861H38.4867C36.0324 42.3861 32.6919 43.4136 32.6919 46.6798V46.8317C32.6763 47.3989 32.7883 47.9621 33.0198 48.4793C33.2511 48.9962 33.5957 49.4535 34.0277 49.8167ZM36.6399 45.1292C37.2003 44.7866 37.8426 44.6046 38.4979 44.6023H41.5003V45.0486C41.5003 47.1561 40.1421 48.4742 38.0278 48.4742C36.6975 48.4742 35.8095 47.7092 35.8095 46.5505C35.8059 46.2608 35.8802 45.9754 36.0246 45.7249C36.1688 45.4744 36.3776 45.2678 36.6288 45.1273L36.6399 45.1292Z" fill="#1E2339"/>
<path d="M54.5299 47.9456C54.2042 48.0182 53.8715 48.0534 53.5378 48.0506C51.9456 48.0506 51.1355 47.3925 51.1355 45.705V39.4894H54.5559V36.6769H51.1355V33.8944C51.1428 33.6842 51.108 33.4746 51.0331 33.2781C50.9585 33.0818 50.8453 32.9025 50.7004 32.7512C50.5555 32.5999 50.3819 32.4795 50.19 32.3972C49.9981 32.3151 49.7917 32.2727 49.5832 32.2727C49.3748 32.2727 49.1683 32.3151 48.9764 32.3972C48.7845 32.4795 48.611 32.5999 48.466 32.7512C48.3213 32.9025 48.2082 33.0818 48.1333 33.2781C48.0586 33.4746 48.0237 33.6842 48.0309 33.8944V36.6694H45.4707V39.4819H48.0309V46.2C48.0309 49.2562 49.8052 50.8875 52.8615 50.8875C53.4315 50.8897 53.9973 50.7913 54.5337 50.5969L54.5299 47.9456Z" fill="#1E2339"/>
<path d="M59.4541 43.5994C59.4541 41.1488 60.7082 39.7519 63.0826 39.7519C63.3799 39.7494 63.6766 39.7759 63.9689 39.8306V36.6169C63.7216 36.5559 63.4672 36.5293 63.2127 36.5381C61.5171 36.5381 60.2381 37.3288 59.3761 38.91V38.2069C59.3761 37.8015 59.2167 37.4128 58.9326 37.1263C58.6487 36.8398 58.2635 36.6788 57.8619 36.6788C57.4604 36.6788 57.0752 36.8398 56.7911 37.1263C56.5073 37.4128 56.3477 37.8015 56.3477 38.2069V50.7469H59.4541V43.5994Z" fill="#1E2339"/>
<path d="M66.686 50.7396C66.8902 50.7396 67.0925 50.6989 67.2811 50.6199C67.4699 50.5412 67.6414 50.4255 67.7857 50.2798C67.9301 50.1341 68.0447 49.9611 68.1228 49.7707C68.201 49.5802 68.2411 49.3762 68.2411 49.1702V38.2352C68.2272 37.8285 68.0574 37.4432 67.7675 37.1606C67.4775 36.8779 67.0901 36.72 66.687 36.72C66.284 36.72 65.8966 36.8779 65.6066 37.1606C65.3166 37.4432 65.1467 37.8285 65.1328 38.2352V49.1702C65.1328 49.5861 65.2965 49.9849 65.5876 50.2792C65.879 50.5734 66.2739 50.739 66.686 50.7396Z" fill="#1E2339"/>
<path d="M68.1018 33.5721C68.2953 33.3836 68.4492 33.1577 68.5542 32.9078C68.6593 32.658 68.7136 32.3893 68.7136 32.118C68.7136 31.8465 68.6593 31.578 68.5542 31.3281C68.4492 31.0783 68.2953 30.8524 68.1018 30.6639C67.9186 30.4643 67.6963 30.3051 67.4492 30.1963C67.2021 30.0874 66.9353 30.0311 66.6656 30.0311C66.396 30.0311 66.1292 30.0874 65.8821 30.1963C65.635 30.3051 65.4128 30.4643 65.2294 30.6639C65.0373 30.8535 64.8846 31.08 64.7807 31.3303C64.677 31.5804 64.6239 31.8491 64.625 32.1204C64.6261 32.3916 64.6811 32.6599 64.7868 32.9093C64.8926 33.1586 65.0469 33.384 65.2405 33.5721C65.6242 33.9469 66.1372 34.1565 66.6711 34.1565C67.2051 34.1565 67.7183 33.9469 68.1018 33.5721Z" fill="#FE016E"/>
<path d="M83.0434 50.3287L78.2462 43.815C78.1948 43.7447 78.1671 43.6596 78.1671 43.5722C78.1671 43.4848 78.1948 43.3997 78.2462 43.3294L82.8613 37.0819C82.889 37.0436 82.9059 36.9984 82.9096 36.9512C82.9135 36.9039 82.9044 36.8567 82.8832 36.8143C82.862 36.7719 82.8297 36.7363 82.7898 36.7116C82.7498 36.6866 82.7039 36.6733 82.6569 36.6731H80.2305C80.0553 36.6733 79.8825 36.7151 79.7262 36.7952C79.57 36.8754 79.4347 36.9915 79.3313 37.1344L77.2002 40.0819C77.0967 40.2249 76.9613 40.3412 76.8048 40.4212C76.6484 40.5015 76.4754 40.5433 76.3 40.5433C76.1247 40.5433 75.9517 40.5015 75.7953 40.4212C75.6388 40.3412 75.5034 40.2249 75.3999 40.0819L73.2893 37.1362C73.1862 36.9924 73.0507 36.8754 72.8941 36.7946C72.7375 36.7138 72.5641 36.6714 72.3882 36.6712H69.8856C69.8386 36.6714 69.7927 36.6847 69.7527 36.7097C69.7128 36.7346 69.6805 36.7701 69.6593 36.8124C69.6381 36.8548 69.629 36.9021 69.6329 36.9493C69.6366 36.9966 69.6535 37.0417 69.6812 37.08L74.326 43.3837C74.378 43.4539 74.4061 43.539 74.4061 43.6266C74.4061 43.7141 74.378 43.7992 74.326 43.8694L69.514 50.3306C69.4856 50.3685 69.4683 50.4137 69.464 50.4609C69.4596 50.5084 69.4685 50.556 69.4897 50.5984C69.5106 50.6409 69.543 50.6766 69.5831 50.7015C69.6232 50.7264 69.6695 50.7396 69.7165 50.7394H72.1894C72.3653 50.7392 72.5387 50.6968 72.6953 50.616C72.8519 50.5352 72.9874 50.4182 73.0905 50.2744L75.3572 47.1C75.4606 46.9567 75.5961 46.8401 75.7527 46.7597C75.9093 46.6792 76.0825 46.6372 76.2582 46.6372C76.434 46.6372 76.6072 46.6792 76.7638 46.7597C76.9204 46.8401 77.0559 46.9567 77.1593 47.1L79.4464 50.2875C79.5499 50.4309 79.6854 50.5476 79.842 50.6282C79.9986 50.7086 80.1718 50.7506 80.3475 50.7506H82.852C82.9005 50.7506 82.9479 50.7367 82.9888 50.7103C83.0294 50.6839 83.062 50.6462 83.082 50.6017C83.1023 50.5573 83.1093 50.508 83.1025 50.4596C83.0956 50.4111 83.0752 50.3657 83.0434 50.3287Z" fill="#1E2339"/>
<path d="M8.15039 13.4344V22.3162C8.28074 20.4184 8.99305 18.6085 10.1886 17.1376C11.384 15.6667 13.0035 14.6077 14.8222 14.1075V8.32875H19.3852C19.8562 8.32924 20.3225 8.23603 20.7577 8.05447C21.1928 7.8729 21.5882 7.60654 21.9213 7.27061C22.2542 6.93467 22.5184 6.53576 22.6986 6.09671C22.8787 5.65766 22.9714 5.18707 22.971 4.71187V4.3725C22.9706 3.41158 22.592 2.49019 21.9185 1.81089C21.245 1.13159 20.3318 0.75 19.3796 0.75H14.1088C14.61 1.97197 14.8519 3.28635 14.8191 4.60847C14.7862 5.93057 14.4791 7.23107 13.9178 8.4261C13.3564 9.62115 12.5532 10.6842 11.5598 11.5468C10.5665 12.4094 9.40503 13.0524 8.15039 13.4344Z" fill="#FE016E"/>
<path d="M8.15039 22.3163V23.5988C8.1691 23.9342 8.20944 24.2681 8.27116 24.5981C8.42705 25.1543 8.72126 25.6609 9.1258 26.07C9.46158 26.4105 9.86598 26.6741 10.3116 26.8429C10.7571 27.0118 11.2335 27.0819 11.7083 27.0488C13.4771 26.9325 14.8222 25.38 14.8222 23.5894V14.1075C13.0035 14.6078 11.384 15.6668 10.1886 17.1377C8.99305 18.6086 8.28074 20.4184 8.15039 22.3163Z" fill="#FFC830"/>
<path d="M8.11541 6.4575C8.08396 6.40817 8.06577 6.35143 8.06266 6.29286C8.05956 6.23426 8.07164 6.17589 8.09772 6.12345C8.12379 6.07103 8.16294 6.02636 8.21134 5.99387C8.25972 5.96136 8.31568 5.94216 8.37366 5.93813L10.2093 5.83875L12.0449 5.73938C12.1028 5.73638 12.1604 5.74877 12.212 5.7753C12.2636 5.80185 12.3074 5.84158 12.339 5.89058C12.3706 5.93955 12.3889 5.99604 12.3921 6.05441C12.3952 6.11276 12.3832 6.17095 12.3571 6.22313L11.5247 7.87875L10.6942 9.53063C10.6681 9.58288 10.6288 9.62726 10.5802 9.65923C10.5316 9.69122 10.4756 9.70967 10.4176 9.71271C10.3597 9.71576 10.3021 9.7033 10.2504 9.6766C10.1989 9.64988 10.1552 9.60986 10.1238 9.56063L9.65749 8.84063C9.19355 9.16118 8.8139 9.59091 8.55137 10.0927C8.28885 10.5945 8.15134 11.1532 8.15071 11.7206V13.4344C9.40535 13.0524 10.5668 12.4094 11.5602 11.5469C12.5535 10.6842 13.3567 9.62115 13.9181 8.4261C14.4795 7.23107 14.7865 5.93057 14.8194 4.60847C14.8523 3.28635 14.6103 1.97197 14.1091 0.75H3.58208C3.11176 0.749754 2.646 0.843026 2.21141 1.02449C1.77683 1.20596 1.38193 1.47206 1.04928 1.8076C0.716629 2.14313 0.452744 2.54152 0.272706 2.98001C0.0926664 3.4185 -6.33272e-08 3.88849 0 4.36313V4.70438C-2.5261e-07 5.18064 0.0930162 5.65226 0.273732 6.09223C0.454446 6.5322 0.719318 6.93191 1.0532 7.26851C1.38708 7.60513 1.78343 7.87202 2.21959 8.05393C2.65573 8.23586 3.12315 8.32924 3.59508 8.32875H5.39541C6.56267 8.32922 7.70292 7.9744 8.66722 7.31063L8.11541 6.4575Z" fill="#831BEE"/>
<path d="M88.7622 11.9286H88.3906V51.1554H88.7622V11.9286Z" fill="#1E2339"/>
<path d="M128.549 35.5931C129.014 35.5926 129.466 35.7501 129.832 36.0401C130.197 36.3302 130.455 36.7361 130.565 37.1925H132.051C130.736 35.1587 129.099 33.3566 127.206 31.8581C127.622 31.854 128.029 31.7256 128.374 31.4888C128.718 31.2521 128.986 30.9176 129.143 30.5278C129.299 30.138 129.338 29.7099 129.254 29.2978C129.171 28.8857 128.968 28.5077 128.672 28.2116C128.375 27.9156 127.999 27.7146 127.59 27.6339C127.181 27.5533 126.757 27.5966 126.372 27.7586C125.987 27.9206 125.659 28.1938 125.427 28.5439C125.196 28.8941 125.073 29.3055 125.073 29.7263C125.073 29.9732 125.117 30.2181 125.201 30.45C122.149 28.5484 118.676 27.441 115.096 27.2269C115.488 26.9548 115.783 26.5633 115.939 26.1096C116.095 25.656 116.103 25.1638 115.961 24.7054C115.82 24.2469 115.537 23.8459 115.154 23.5613C114.771 23.2764 114.308 23.1229 113.832 23.1229C113.357 23.1229 112.893 23.2764 112.51 23.5613C112.127 23.8459 111.844 24.2469 111.703 24.7054C111.562 25.1638 111.57 25.656 111.726 26.1096C111.881 26.5633 112.177 26.9548 112.569 27.2269C108.949 27.423 105.435 28.5332 102.35 30.4556C102.435 30.2237 102.478 29.9788 102.478 29.7319C102.478 29.3106 102.355 28.8988 102.123 28.5484C101.892 28.1979 101.563 27.9244 101.178 27.7624C100.792 27.6004 100.368 27.5569 99.9586 27.6379C99.5489 27.7187 99.1721 27.9201 98.8758 28.2165C98.5792 28.5131 98.3765 28.8915 98.2927 29.3042C98.2091 29.7169 98.2483 30.1453 98.4055 30.5355C98.5627 30.9257 98.8308 31.2602 99.1762 31.4968C99.5214 31.7336 99.9283 31.8619 100.346 31.8656C98.4518 33.3624 96.8153 35.1641 95.502 37.1981H97.0515C97.1377 36.8353 97.3181 36.5023 97.5741 36.2334C97.8303 35.9646 98.1528 35.7696 98.5086 35.6683C98.8644 35.5673 99.2405 35.5639 99.5981 35.6584C99.9556 35.7529 100.282 35.9421 100.543 36.2063C100.812 36.4774 101.002 36.8188 101.091 37.1925H105.308V32.7038C105.308 31.8866 105.63 31.1031 106.202 30.5254C106.775 29.9477 107.551 29.6231 108.361 29.6231C109.17 29.6231 109.947 29.9477 110.519 30.5254C111.092 31.1031 111.413 31.8866 111.413 32.7038V37.1925H116.192V32.7038C116.192 31.8866 116.513 31.1031 117.086 30.5254C117.658 29.9477 118.435 29.6231 119.244 29.6231C120.054 29.6231 120.83 29.9477 121.403 30.5254C121.975 31.1031 122.297 31.8866 122.297 32.7038V37.1925H126.539C126.648 36.7373 126.906 36.3323 127.27 36.0424C127.635 35.7523 128.085 35.5941 128.549 35.5931Z" fill="#FE016E"/>
</g>
</g>
<defs>
<clipPath id="clip0_120_790">
<rect width="136" height="57" fill="white" transform="translate(0 0.75)"/>
</clipPath>
</defs>
</svg>
