<svg width="30" height="23" viewBox="0 0 30 23" fill="none" xmlns="http://www.w3.org/2000/svg">
<g clip-path="url(#clip0_121_1950)">
<path d="M0.00488281 0H30.0049V23H0.00488281V0Z" fill="#3F9C35"/>
<path d="M0.00488281 0H30.0049V15.3333H0.00488281V0Z" fill="#ED2939"/>
<path d="M0.00488281 0H30.0049V7.66667H0.00488281V0Z" fill="#00B9E4"/>
<path d="M14.25 14.9498C16.114 14.9498 17.625 13.4052 17.625 11.4998C17.625 9.59442 16.114 8.0498 14.25 8.0498C12.386 8.0498 10.875 9.59442 10.875 11.4998C10.875 13.4052 12.386 14.9498 14.25 14.9498Z" fill="white"/>
<path d="M15 14.375C16.5533 14.375 17.8125 13.0878 17.8125 11.5C17.8125 9.91218 16.5533 8.625 15 8.625C13.4467 8.625 12.1875 9.91218 12.1875 11.5C12.1875 13.0878 13.4467 14.375 15 14.375Z" fill="#ED2939"/>
<path d="M18 9.5835L18.3609 10.6137L19.3266 10.1441L18.8672 11.136L19.875 11.5002L18.8672 11.8691L19.3266 12.8562L18.3609 12.3866L18 13.4168L17.6391 12.3866L16.6734 12.8562L17.1328 11.8691L16.125 11.5002L17.1328 11.1312L16.6734 10.1441L17.6391 10.6137L18 9.5835Z" fill="white"/>
</g>
<defs>
<clipPath id="clip0_121_1950">
<rect width="30" height="23" rx="6" fill="white"/>
</clipPath>
</defs>
</svg>
