<svg width="137" height="57" viewBox="0 0 137 57" fill="none" xmlns="http://www.w3.org/2000/svg">
<g clip-path="url(#clip0_121_2114)">
<mask id="mask0_121_2114" style="mask-type:luminance" maskUnits="userSpaceOnUse" x="0" y="0" width="137" height="57">
<path d="M136.437 0H0.5V56.8538H136.437V0Z" fill="white"/>
</mask>
<g mask="url(#mask0_121_2114)">
<path d="M99.7729 49.0482C99.1351 49.4736 98.3821 49.6885 97.6177 49.6632H93.874V41.0645H97.5639C98.478 41.0645 99.1951 41.3288 99.7172 41.867C99.9026 42.062 100.048 42.2926 100.143 42.545C100.239 42.7975 100.284 43.0668 100.275 43.337C100.275 44.1826 99.7525 44.837 98.9146 45.182V45.2157C99.9922 45.3901 100.644 46.1813 100.644 47.2351C100.651 48.0376 100.36 48.6419 99.7729 49.0482ZM97.1718 42.9207H95.953V44.4695H97.1941C97.8035 44.4695 98.151 44.1713 98.151 43.6895C98.151 43.172 97.824 42.9207 97.1718 42.9207ZM95.953 46.1813V47.7957H97.5416C98.1082 47.7957 98.5095 47.5107 98.5095 46.9838C98.5095 46.457 98.0971 46.1813 97.5304 46.1813H95.953Z" fill="white"/>
<path d="M103.743 49.6632H101.599V41.0645H105.092C106.06 41.0645 106.832 41.2951 107.41 41.7676C107.988 42.2401 108.28 42.9207 108.28 43.8301C108.28 45.1426 107.594 45.9488 106.583 46.3107L108.473 49.6632H106.147L104.439 46.6445H103.743V49.6632ZM103.743 44.7882H104.928C105.701 44.7882 106.126 44.4695 106.126 43.8995C106.126 43.3295 105.755 42.9226 104.919 42.9226H103.743V44.7882Z" fill="white"/>
<path d="M111.5 49.6632H109.347V41.0645H111.5V49.6632Z" fill="white"/>
<path d="M112.932 41.0645H115.75C117.144 41.0645 118.286 41.4395 119.178 42.1726C120.07 42.9057 120.516 43.9632 120.516 45.3357C120.536 46.174 120.309 46.9996 119.864 47.7076C119.003 49.0201 117.547 49.6632 115.761 49.6632H112.932V41.0645ZM115.076 47.6532H115.761C116.427 47.6825 117.08 47.4681 117.601 47.0495C118.073 46.6445 118.32 46.082 118.32 45.347C118.32 44.612 118.082 44.0626 117.591 43.6595C117.078 43.2436 116.432 43.0291 115.774 43.0557H115.068L115.076 47.6532Z" fill="white"/>
<path d="M123.818 47.1147C124.023 47.3514 124.278 47.5389 124.564 47.6641C124.85 47.7892 125.16 47.8488 125.471 47.8385C125.88 47.8415 126.283 47.732 126.635 47.5216C126.796 47.4395 126.938 47.3234 127.051 47.1809C127.163 47.0386 127.244 46.8734 127.289 46.6966H124.84V44.9566H129.529V45.791C129.541 46.3194 129.447 46.8447 129.252 47.3354C129.058 47.8261 128.767 48.2722 128.398 48.6466C127.655 49.3966 126.679 49.7885 125.471 49.7885C124.883 49.8061 124.297 49.7032 123.749 49.486C123.201 49.2689 122.702 48.9417 122.283 48.5247C121.464 47.6853 121.006 46.553 121.011 45.3747C121.015 44.1965 121.48 43.0675 122.306 42.2341C122.715 41.809 123.207 41.4732 123.75 41.2475C124.293 41.0217 124.877 40.9109 125.464 40.9216C126.286 40.9145 127.093 41.1385 127.796 41.5685C128.476 41.9744 129.004 42.5962 129.297 43.3366L127.48 44.2366C127.331 43.8174 127.051 43.4583 126.682 43.2129C126.314 42.9674 125.877 42.8491 125.436 42.8754C125.133 42.8692 124.832 42.9277 124.552 43.0467C124.273 43.166 124.021 43.3434 123.814 43.5672C123.373 44.0461 123.138 44.6821 123.162 45.3354C123.149 45.9909 123.384 46.6269 123.818 47.1147Z" fill="white"/>
<path d="M136.405 42.9863H132.576V44.3945H136.058V46.2488H132.576V47.732H136.438V49.6632H130.454V41.0645H136.399L136.405 42.9863Z" fill="white"/>
<path d="M17.9398 19.1282C17.9398 21.1813 18.6439 22.9194 20.0782 24.3144C20.7656 24.9966 21.5805 25.5338 22.4755 25.8951C23.3704 26.2562 24.3278 26.4341 25.2915 26.4182C26.2528 26.4392 27.2081 26.2635 28.1003 25.902C28.9923 25.5403 29.8027 25.0003 30.4826 24.3144C31.915 22.8913 32.621 21.1551 32.621 19.0757C32.621 16.9963 31.915 15.3126 30.4826 13.9176C29.8022 13.2422 28.9951 12.7105 28.1085 12.3538C27.2219 11.997 26.2738 11.8224 25.3194 11.8401C24.3551 11.8241 23.3974 12.0021 22.502 12.3636C21.6067 12.7251 20.7916 13.2629 20.1042 13.9457C19.4041 14.6085 18.8497 15.4123 18.4769 16.3051C18.104 17.1978 17.921 18.1596 17.9398 19.1282ZM22.265 15.9707C23.049 15.1026 24.0653 14.6807 25.2897 14.6807C26.514 14.6807 27.534 15.1026 28.2883 15.9707C29.0687 16.8309 29.4895 17.9623 29.4625 19.1282C29.4865 20.2886 29.0774 21.4157 28.3162 22.2857C27.56 23.1557 26.5419 23.5757 25.3175 23.5757C24.7494 23.5914 24.1844 23.4821 23.6621 23.2554C23.1399 23.0288 22.6726 22.6903 22.2928 22.2632C21.5155 21.3893 21.0958 20.25 21.1186 19.0757C21.0906 17.9304 21.5012 16.8183 22.265 15.9707Z" fill="#831BEE"/>
<path d="M38.9271 26.4707C40.6996 26.4707 42.1079 25.7338 43.178 24.2863V24.6613C43.178 25.0661 43.3373 25.4544 43.621 25.7406C43.9047 26.0269 44.2893 26.1876 44.6904 26.1876C45.0915 26.1876 45.4761 26.0269 45.7598 25.7406C46.0433 25.4544 46.2027 25.0661 46.2027 24.6613V13.6945C46.1888 13.2884 46.0192 12.9036 45.7295 12.6213C45.4399 12.339 45.0531 12.1812 44.6504 12.1812C44.2478 12.1812 43.8608 12.339 43.5714 12.6213C43.2817 12.9036 43.1121 13.2884 43.0981 13.6945V19.9438C43.0981 22.0757 41.8478 23.5063 39.8914 23.5063C37.8309 23.5063 36.8146 22.1094 36.8146 20.0057V13.6945C36.8146 13.2793 36.6511 12.8811 36.3602 12.5875C36.0692 12.2939 35.6746 12.1289 35.2633 12.1289C34.8518 12.1289 34.4571 12.2939 34.1662 12.5875C33.8754 12.8811 33.7119 13.2793 33.7119 13.6945V20.7688C33.7119 24.1288 35.5624 26.4707 38.9271 26.4707Z" fill="#831BEE"/>
<path d="M49.949 26.1823C50.1526 26.1823 50.3544 26.1418 50.5424 26.0631C50.7306 25.9843 50.9016 25.869 51.0454 25.7235C51.1894 25.5782 51.3034 25.4055 51.3811 25.2156C51.459 25.0256 51.4989 24.8222 51.4985 24.6167V19.0517C51.4985 16.6029 52.7526 15.2079 55.1252 15.2079H55.2441C55.3444 15.2096 55.444 15.1912 55.5373 15.1536C55.6304 15.116 55.7153 15.06 55.7866 14.989C55.8581 14.9179 55.9148 14.8332 55.9535 14.7397C55.9919 14.6463 56.0118 14.546 56.0114 14.4448V12.7573C56.012 12.557 55.9343 12.3646 55.7952 12.2217C55.656 12.0789 55.4667 11.9971 55.2683 11.9941H55.259C53.5645 11.9941 52.287 12.7841 51.4261 14.3641V13.6516C51.4261 13.4512 51.387 13.2527 51.3111 13.0676C51.2351 12.8824 51.1236 12.7141 50.9831 12.5724C50.8427 12.4307 50.676 12.3183 50.4925 12.2416C50.3091 12.1649 50.1123 12.1254 49.9137 12.1254C49.7151 12.1254 49.5185 12.1649 49.335 12.2416C49.1516 12.3183 48.9848 12.4307 48.8443 12.5724C48.704 12.7141 48.5925 12.8824 48.5166 13.0676C48.4406 13.2527 48.4014 13.4512 48.4014 13.6516V24.6129C48.401 24.8184 48.4406 25.0223 48.518 25.2124C48.5955 25.4025 48.7094 25.5754 48.8532 25.7211C48.9968 25.8668 49.1676 25.9824 49.3556 26.0616C49.5438 26.1407 49.7454 26.1818 49.949 26.1823Z" fill="#831BEE"/>
<path d="M30.8315 48.8022V30.5454C30.8315 30.2311 30.708 29.9296 30.4876 29.7074C30.2674 29.4852 29.9689 29.3604 29.6573 29.3604H26.1124C25.8859 29.3605 25.6641 29.4269 25.4738 29.5512C25.2837 29.6757 25.1333 29.8529 25.0404 30.0616L20.8545 39.5191C20.7618 39.7274 20.6114 39.9042 20.4214 40.0283C20.2313 40.1525 20.0098 40.2185 19.7834 40.2185C19.5571 40.2185 19.3356 40.1525 19.1455 40.0283C18.9556 39.9042 18.8051 39.7274 18.7123 39.5191L14.4633 30.056C14.3704 29.8486 14.2202 29.6727 14.0307 29.5494C13.8412 29.426 13.6205 29.3604 13.395 29.3604H9.94667C9.63526 29.3604 9.3366 29.4852 9.11638 29.7074C8.89618 29.9296 8.77246 30.2311 8.77246 30.5454V48.8022C8.77246 49.1165 8.89618 49.418 9.11638 49.6402C9.3366 49.8623 9.63526 49.9872 9.94667 49.9872H11.7154C12.0268 49.9872 12.3255 49.8623 12.5457 49.6402C12.7659 49.418 12.8896 49.1165 12.8896 48.8022V37.0816L18.2776 49.2897C18.3697 49.499 18.52 49.6769 18.7103 49.8018C18.9006 49.9265 19.1227 49.9929 19.3495 49.9929H20.1986C20.4258 49.9929 20.6482 49.9265 20.8387 49.8016C21.0293 49.6769 21.18 49.499 21.2725 49.2897L26.6865 37.0047V48.8172C26.6865 48.9728 26.717 49.127 26.776 49.2706C26.8349 49.4144 26.9215 49.5451 27.0306 49.6552C27.1394 49.7652 27.2689 49.8524 27.4114 49.912C27.5539 49.9715 27.7065 50.0022 27.8607 50.0022H29.6554C29.8111 50.0024 29.9653 49.9715 30.109 49.9111C30.2526 49.8507 30.3828 49.7622 30.4923 49.6505C30.6017 49.5389 30.6881 49.4064 30.7464 49.2607C30.8046 49.1152 30.8336 48.9592 30.8315 48.8022Z" fill="white"/>
<path d="M34.5277 49.0671C35.4158 49.8302 36.538 50.2259 37.8961 50.2259C39.7763 50.2259 41.1326 49.5134 41.9947 48.0659V49.9877H45.0436V41.0309C45.0645 40.1644 44.9044 39.3032 44.5735 38.5034C43.7114 36.5777 41.9631 35.6309 39.3527 35.6309C37.1065 35.6309 35.3972 36.3696 34.2379 37.8584C34.124 38.0025 34.0394 38.1677 33.9889 38.3447C33.9384 38.5217 33.923 38.7072 33.9434 38.8902C33.9638 39.0734 34.0198 39.2505 34.108 39.4118C34.1964 39.573 34.3153 39.7152 34.458 39.8299C34.6007 39.9449 34.7644 40.0302 34.94 40.0812C35.1154 40.1322 35.2989 40.1479 35.4805 40.1273C35.6618 40.1065 35.8374 40.05 35.9971 39.961C36.1569 39.8719 36.2978 39.7517 36.4116 39.6077C37.1139 38.7621 38.0838 38.344 39.2747 38.344C41.023 38.344 42.0151 39.2927 42.0151 40.4515C42.0151 41.2427 41.5711 41.6365 40.7146 41.6365H38.9867C36.5324 41.6365 33.1919 42.664 33.1919 45.9302V46.0821C33.1763 46.6493 33.2883 47.2126 33.5198 47.7297C33.7511 48.2466 34.0957 48.7039 34.5277 49.0671ZM37.1399 44.3796C37.7003 44.037 38.3426 43.855 38.9979 43.8527H42.0003V44.299C42.0003 46.4065 40.6421 47.7246 38.5278 47.7246C37.1975 47.7246 36.3095 46.9596 36.3095 45.8009C36.3059 45.5112 36.3802 45.2258 36.5246 44.9753C36.6688 44.7248 36.8776 44.5182 37.1288 44.3777L37.1399 44.3796Z" fill="white"/>
<path d="M55.0299 47.1954C54.7042 47.268 54.3715 47.3032 54.0378 47.3004C52.4456 47.3004 51.6355 46.6423 51.6355 44.9548V38.7391H55.0559V35.9266H51.6355V33.1441C51.6428 32.934 51.608 32.7243 51.5331 32.5278C51.4585 32.3315 51.3453 32.1523 51.2004 32.001C51.0555 31.8496 50.8819 31.7293 50.69 31.647C50.4981 31.5648 50.2917 31.5225 50.0832 31.5225C49.8748 31.5225 49.6683 31.5648 49.4764 31.647C49.2845 31.7293 49.111 31.8496 48.966 32.001C48.8213 32.1523 48.7082 32.3315 48.6333 32.5278C48.5586 32.7243 48.5237 32.934 48.5309 33.1441V35.9191H45.9707V38.7316H48.5309V45.4498C48.5309 48.506 50.3052 50.1373 53.3615 50.1373C53.9315 50.1395 54.4973 50.0411 55.0337 49.8466L55.0299 47.1954Z" fill="white"/>
<path d="M59.9541 42.849C59.9541 40.3984 61.2082 39.0015 63.5826 39.0015C63.8799 38.9991 64.1766 39.0255 64.4689 39.0803V35.8665C64.2216 35.8056 63.9672 35.779 63.7127 35.7878C62.0171 35.7878 60.7381 36.5785 59.8761 38.1597V37.4565C59.8761 37.0512 59.7167 36.6625 59.4326 36.376C59.1487 36.0895 58.7635 35.9284 58.3619 35.9284C57.9604 35.9284 57.5752 36.0895 57.2911 36.376C57.0073 36.6625 56.8477 37.0512 56.8477 37.4565V49.9965H59.9541V42.849Z" fill="white"/>
<path d="M67.186 49.9893C67.3902 49.9893 67.5925 49.9486 67.7811 49.8697C67.9699 49.7909 68.1414 49.6752 68.2857 49.5295C68.4301 49.3838 68.5447 49.2108 68.6228 49.0205C68.701 48.83 68.7411 48.626 68.7411 48.4199V37.4849C68.7272 37.0782 68.5574 36.6929 68.2675 36.4104C67.9775 36.1276 67.5901 35.9697 67.187 35.9697C66.784 35.9697 66.3966 36.1276 66.1066 36.4104C65.8166 36.6929 65.6467 37.0782 65.6328 37.4849V48.4199C65.6328 48.8358 65.7965 49.2346 66.0876 49.529C66.379 49.8232 66.7739 49.9887 67.186 49.9893Z" fill="white"/>
<path d="M68.6018 32.8222C68.7953 32.6337 68.9492 32.4078 69.0542 32.1579C69.1593 31.9081 69.2136 31.6394 69.2136 31.3681C69.2136 31.0966 69.1593 30.8281 69.0542 30.5782C68.9492 30.3284 68.7953 30.1025 68.6018 29.9141C68.4186 29.7144 68.1963 29.5552 67.9492 29.4464C67.7021 29.3375 67.4353 29.2812 67.1656 29.2812C66.896 29.2812 66.6292 29.3375 66.3821 29.4464C66.135 29.5552 65.9128 29.7144 65.7294 29.9141C65.5373 30.1036 65.3846 30.3301 65.2807 30.5804C65.177 30.8306 65.1239 31.0993 65.125 31.3706C65.1261 31.6417 65.1811 31.91 65.2868 32.1594C65.3926 32.4088 65.5469 32.6341 65.7405 32.8222C66.1242 33.197 66.6372 33.4066 67.1711 33.4066C67.7051 33.4066 68.2183 33.197 68.6018 32.8222Z" fill="#FE016E"/>
<path d="M83.5434 49.5784L78.7462 43.0646C78.6948 42.9943 78.6671 42.9092 78.6671 42.8218C78.6671 42.7345 78.6948 42.6493 78.7462 42.579L83.3613 36.3315C83.389 36.2933 83.4059 36.2481 83.4096 36.2008C83.4135 36.1536 83.4044 36.1063 83.3832 36.064C83.362 36.0216 83.3297 35.986 83.2898 35.9612C83.2498 35.9363 83.2039 35.923 83.1569 35.9228H80.7305C80.5553 35.923 80.3825 35.9648 80.2262 36.0448C80.07 36.1251 79.9347 36.2411 79.8313 36.384L77.7002 39.3315C77.5967 39.4746 77.4613 39.5908 77.3048 39.6709C77.1484 39.7511 76.9754 39.793 76.8 39.793C76.6247 39.793 76.4517 39.7511 76.2953 39.6709C76.1388 39.5908 76.0034 39.4746 75.8999 39.3315L73.7893 36.3859C73.6862 36.2421 73.5507 36.1251 73.3941 36.0443C73.2375 35.9635 73.0641 35.9211 72.8882 35.9209H70.3856C70.3386 35.9211 70.2927 35.9344 70.2527 35.9593C70.2128 35.9843 70.1805 36.0197 70.1593 36.0621C70.1381 36.1045 70.129 36.1517 70.1329 36.199C70.1366 36.2462 70.1535 36.2914 70.1812 36.3296L74.826 42.6334C74.878 42.7035 74.9061 42.7886 74.9061 42.8762C74.9061 42.9638 74.878 43.0489 74.826 43.119L70.014 49.5803C69.9856 49.6181 69.9683 49.6633 69.964 49.7106C69.9596 49.758 69.9685 49.8056 69.9897 49.848C70.0106 49.8906 70.043 49.9262 70.0831 49.9511C70.1232 49.9761 70.1695 49.9892 70.2165 49.989H72.6894C72.8653 49.9888 73.0387 49.9465 73.1953 49.8656C73.3519 49.7848 73.4874 49.6678 73.5905 49.524L75.8572 46.3496C75.9606 46.2064 76.0961 46.0898 76.2527 46.0093C76.4093 45.9289 76.5825 45.8869 76.7582 45.8869C76.934 45.8869 77.1072 45.9289 77.2638 46.0093C77.4204 46.0898 77.5559 46.2064 77.6593 46.3496L79.9464 49.5371C80.0499 49.6806 80.1854 49.7972 80.342 49.8778C80.4986 49.9583 80.6718 50.0003 80.8475 50.0003H83.352C83.4005 50.0003 83.4479 49.9864 83.4888 49.96C83.5294 49.9335 83.562 49.8958 83.582 49.8514C83.6023 49.807 83.6093 49.7576 83.6025 49.7093C83.5956 49.6607 83.5752 49.6153 83.5434 49.5784Z" fill="white"/>
<path d="M8.65039 12.6844V21.5662C8.78074 19.6684 9.49305 17.8585 10.6886 16.3876C11.884 14.9167 13.5035 13.8577 15.3222 13.3575V7.57875H19.8852C20.3562 7.57924 20.8225 7.48603 21.2577 7.30447C21.6928 7.1229 22.0882 6.85654 22.4213 6.52061C22.7542 6.18467 23.0184 5.78576 23.1986 5.34671C23.3787 4.90766 23.4714 4.43707 23.471 3.96187V3.6225C23.4706 2.66158 23.092 1.74019 22.4185 1.06089C21.745 0.381594 20.8318 -1.28586e-07 19.8796 0H14.6088C15.11 1.22197 15.3519 2.53635 15.3191 3.85847C15.2862 5.18057 14.9791 6.48107 14.4178 7.6761C13.8564 8.87115 13.0532 9.93424 12.0598 10.7968C11.0665 11.6594 9.90503 12.3024 8.65039 12.6844Z" fill="#FE016E"/>
<path d="M8.65039 21.5661V22.8486C8.6691 23.1841 8.70944 23.518 8.77116 23.848C8.92705 24.4041 9.22126 24.9108 9.6258 25.3199C9.96158 25.6604 10.366 25.924 10.8116 26.0928C11.2571 26.2617 11.7335 26.3318 12.2083 26.2986C13.9771 26.1824 15.3222 24.6299 15.3222 22.8393V13.3574C13.5035 13.8577 11.884 14.9167 10.6886 16.3876C9.49305 17.8585 8.78074 19.6683 8.65039 21.5661Z" fill="#FFC830"/>
<path d="M8.61541 5.7075C8.58396 5.65817 8.56577 5.60143 8.56266 5.54286C8.55956 5.48426 8.57164 5.42589 8.59772 5.37345C8.62379 5.32103 8.66294 5.27636 8.71134 5.24387C8.75972 5.21136 8.81568 5.19216 8.87366 5.18813L10.7093 5.08875L12.5449 4.98938C12.6028 4.98638 12.6604 4.99877 12.712 5.0253C12.7636 5.05185 12.8074 5.09158 12.839 5.14058C12.8706 5.18955 12.8889 5.24604 12.8921 5.30441C12.8952 5.36276 12.8832 5.42095 12.8571 5.47313L12.0247 7.12875L11.1942 8.78063C11.1681 8.83288 11.1288 8.87726 11.0802 8.90923C11.0316 8.94122 10.9756 8.95967 10.9176 8.96271C10.8597 8.96576 10.8021 8.9533 10.7504 8.9266C10.6989 8.89988 10.6552 8.85986 10.6238 8.81063L10.1575 8.09063C9.69355 8.41118 9.3139 8.84091 9.05137 9.34268C8.78885 9.84446 8.65134 10.4032 8.65071 10.9706V12.6844C9.90535 12.3024 11.0668 11.6594 12.0602 10.7969C13.0535 9.93424 13.8567 8.87115 14.4181 7.6761C14.9795 6.48107 15.2865 5.18057 15.3194 3.85847C15.3523 2.53635 15.1103 1.22197 14.6091 4.86563e-07H4.08208C3.61176 -0.000245824 3.146 0.0930265 2.71141 0.274493C2.27683 0.455959 1.88193 0.722061 1.54928 1.0576C1.21663 1.39313 0.952744 1.79152 0.772706 2.23001C0.592666 2.6685 0.5 3.13849 0.5 3.61313V3.95438C0.5 4.43064 0.593016 4.90226 0.773732 5.34223C0.954446 5.7822 1.21932 6.18191 1.5532 6.51851C1.88708 6.85513 2.28343 7.12202 2.71959 7.30393C3.15573 7.48586 3.62315 7.57924 4.09508 7.57875H5.89541C7.06267 7.57922 8.20292 7.2244 9.16722 6.56063L8.61541 5.7075Z" fill="#831BEE"/>
<path d="M89.2622 11.1787H88.8906V50.4056H89.2622V11.1787Z" fill="white"/>
<path d="M129.049 34.8433C129.514 34.8427 129.966 35.0002 130.332 35.2903C130.697 35.5804 130.955 35.9863 131.065 36.4427H132.551C131.236 34.4089 129.599 32.6068 127.706 31.1083C128.122 31.1042 128.529 30.9757 128.874 30.7389C129.218 30.5023 129.486 30.1678 129.643 29.778C129.799 29.3882 129.838 28.9601 129.754 28.548C129.671 28.1359 129.468 27.7579 129.172 27.4618C128.875 27.1657 128.499 26.9647 128.09 26.8841C127.681 26.8035 127.257 26.8468 126.872 27.0088C126.487 27.1708 126.159 27.444 125.927 27.794C125.696 28.1443 125.573 28.5557 125.573 28.9764C125.573 29.2234 125.617 29.4682 125.701 29.7002C122.649 27.7985 119.176 26.6912 115.596 26.477C115.988 26.205 116.283 25.8135 116.439 25.3597C116.595 24.9062 116.603 24.414 116.461 23.9555C116.32 23.4971 116.037 23.096 115.654 22.8114C115.271 22.5266 114.808 22.373 114.332 22.373C113.857 22.373 113.393 22.5266 113.01 22.8114C112.627 23.096 112.344 23.4971 112.203 23.9555C112.062 24.414 112.07 24.9062 112.226 25.3597C112.381 25.8135 112.677 26.205 113.069 26.477C109.449 26.6732 105.935 27.7834 102.85 29.7058C102.935 29.4739 102.978 29.229 102.978 28.982C102.978 28.5607 102.855 28.149 102.623 27.7985C102.392 27.4481 102.063 27.1745 101.678 27.0125C101.292 26.8505 100.868 26.807 100.459 26.888C100.049 26.9689 99.6721 27.1702 99.3758 27.4667C99.0792 27.7633 98.8765 28.1417 98.7927 28.5544C98.7091 28.967 98.7483 29.3955 98.9055 29.7857C99.0627 30.1759 99.3308 30.5104 99.6762 30.747C100.021 30.9838 100.428 31.112 100.846 31.1158C98.9518 32.6126 97.3153 34.4143 96.002 36.4483H97.5515C97.6377 36.0855 97.8181 35.7525 98.0741 35.4836C98.3303 35.2147 98.6528 35.0197 99.0086 34.9185C99.3644 34.8174 99.7405 34.814 100.098 34.9085C100.456 35.003 100.782 35.1922 101.043 35.4564C101.312 35.7275 101.502 36.069 101.591 36.4427H105.808V31.9539C105.808 31.1368 106.13 30.3532 106.702 29.7755C107.275 29.1979 108.051 28.8733 108.861 28.8733C109.67 28.8733 110.447 29.1979 111.019 29.7755C111.592 30.3532 111.913 31.1368 111.913 31.9539V36.4427H116.692V31.9539C116.692 31.1368 117.013 30.3532 117.586 29.7755C118.158 29.1979 118.935 28.8733 119.744 28.8733C120.554 28.8733 121.33 29.1979 121.903 29.7755C122.475 30.3532 122.797 31.1368 122.797 31.9539V36.4427H127.039C127.148 35.9874 127.406 35.5824 127.77 35.2925C128.135 35.0025 128.585 34.8442 129.049 34.8433Z" fill="#FE016E"/>
</g>
</g>
<defs>
<clipPath id="clip0_121_2114">
<rect width="136" height="57" fill="white" transform="translate(0.5)"/>
</clipPath>
</defs>
</svg>
