<svg width="30" height="23" viewBox="0 0 30 23" fill="none" xmlns="http://www.w3.org/2000/svg">
<g clip-path="url(#clip0_121_1902)">
<mask id="mask0_121_1902" style="mask-type:luminance" maskUnits="userSpaceOnUse" x="0" y="0" width="30" height="23">
<path d="M0 0H30V23H0V0Z" fill="white"/>
</mask>
<g mask="url(#mask0_121_1902)">
<path d="M0 0H30V23H0V0Z" fill="#CC0000"/>
<path d="M0 0H30V1.64354H0V0Z" fill="#CC0000"/>
<path d="M0 1.64355H30V3.2871H0V1.64355Z" fill="white"/>
<path d="M0 3.28711H30V4.93065H0V3.28711Z" fill="#CC0000"/>
<path d="M0 4.93066H30V6.56462H0V4.93066Z" fill="white"/>
<path d="M0 6.56934H30V8.21288H0V6.56934Z" fill="#CC0000"/>
<path d="M0 8.21289H30V9.85643H0V8.21289Z" fill="white"/>
<path d="M0 9.85645H30V11.5H0V9.85645Z" fill="#CC0000"/>
<path d="M0 11.5H30V13.1435H0V11.5Z" fill="white"/>
<path d="M0 13.1436H30V14.7871H0V13.1436Z" fill="#CC0000"/>
<path d="M0 14.7871H30V16.4307H0V14.7871Z" fill="white"/>
<path d="M0 16.4307H30V18.0646H0V16.4307Z" fill="#CC0000"/>
<path d="M0 18.0693H30V19.7129H0V18.0693Z" fill="white"/>
<path d="M0 19.7129H30V21.3564H0V19.7129Z" fill="#CC0000"/>
<path d="M0 21.3564H30V23H0V21.3564Z" fill="white"/>
<path d="M0 0.0239258H15V13.1675H0V0.0239258Z" fill="#000066"/>
<path d="M9.72676 3.53642L10.008 5.48662L11.0861 3.85746L10.5049 5.73579L12.1689 4.73912L10.8518 6.17662L12.7736 6.02329L10.9783 6.73246L12.7736 7.44163L10.8518 7.28829L12.1689 8.72579L10.5049 7.72913L11.0814 9.61225L10.0033 7.97829L9.72207 9.9285L9.44551 7.97829L8.36738 9.60746L8.94863 7.72913L7.28457 8.72579L8.59707 7.28829L6.6752 7.44163L8.4752 6.73246L6.67988 6.02329L8.60176 6.17662L7.28457 4.73912L8.94863 5.73579L8.36738 3.85267L9.44551 5.48662L9.72676 3.53642ZM8.16582 3.61787C7.65833 3.38574 7.10204 3.28726 6.54774 3.33143C5.99344 3.37561 5.4588 3.56103 4.99264 3.87077C4.52649 4.18051 4.14366 4.60469 3.87914 5.10457C3.61461 5.60446 3.47681 6.16412 3.47832 6.73246C3.47681 7.30079 3.61461 7.86046 3.87914 8.36034C4.14366 8.86023 4.52649 9.28441 4.99264 9.59415C5.4588 9.90388 5.99344 10.0893 6.54774 10.1335C7.10204 10.1777 7.65833 10.0792 8.16582 9.84704C7.60541 10.2585 6.9448 10.504 6.25671 10.5564C5.56861 10.6088 4.8797 10.4662 4.26582 10.1441C3.65264 9.82163 3.13833 9.33255 2.77942 8.73066C2.42051 8.12876 2.2309 7.43736 2.23145 6.73246C2.23167 6.02774 2.42194 5.33671 2.78134 4.73533C3.14074 4.13395 3.65536 3.64548 4.26865 3.3236C4.88195 3.00172 5.57017 2.85889 6.2577 2.91081C6.94523 2.96272 7.60545 3.20737 8.16582 3.61787Z" fill="#FFCC00"/>
</g>
</g>
<defs>
<clipPath id="clip0_121_1902">
<rect width="30" height="23" rx="6" fill="white"/>
</clipPath>
</defs>
</svg>
