<svg width="51" height="51" viewBox="0 0 51 51" fill="none" xmlns="http://www.w3.org/2000/svg">
<g clip-path="url(#clip0_121_1612)">
<path d="M21.8132 33.5756C21.3167 33.5756 20.8232 33.4568 20.3849 33.2314C19.3269 32.6944 18.6689 31.6201 18.6689 30.4301V20.1392C18.6689 18.9505 19.3269 17.8762 20.3877 17.336C21.432 16.8094 22.7279 16.9143 23.665 17.5974L30.7318 22.7424C31.5413 23.3327 32.0249 24.2825 32.0249 25.2842C32.0249 26.2859 31.5413 27.2365 30.7318 27.8263L23.665 32.9722C23.1248 33.3668 22.4841 33.5756 21.8132 33.5756ZM21.8145 18.6078C21.5738 18.6078 21.3328 18.665 21.1182 18.774C20.6028 19.0367 20.2819 19.5604 20.2819 20.1392V30.431C20.2819 31.0105 20.6028 31.5335 21.1191 31.7957C21.624 32.0548 22.2548 32.0044 22.7149 31.6697L29.7821 26.5231C30.1759 26.2365 30.4121 25.7734 30.4121 25.2852C30.4121 24.7972 30.1759 24.3345 29.7821 24.0463L22.7149 18.9013C22.4519 18.7094 22.1409 18.6078 21.8145 18.6078Z" fill="url(#paint0_linear_121_1612)"/>
<path d="M25.3466 50.285C11.5617 50.285 0.34668 39.0705 0.34668 25.2852C0.34668 11.5006 11.5617 0.285156 25.3466 0.285156C39.132 0.285156 50.3467 11.5006 50.3467 25.2852C50.3467 39.0705 39.132 50.285 25.3466 50.285ZM25.3466 1.89799C12.4505 1.89799 1.95952 12.3894 1.95952 25.2852C1.95952 38.1806 12.4505 48.6723 25.3466 48.6723C38.242 48.6723 48.7338 38.1806 48.7338 25.2852C48.7338 12.3894 38.242 1.89799 25.3466 1.89799Z" fill="url(#paint1_linear_121_1612)"/>
<path d="M18.2229 18.5852C18.2229 16.2758 20.7229 14.8324 22.7229 15.9871L34.0259 22.5129C36.0259 23.6676 36.0259 26.5544 34.0259 27.7091L22.7229 34.2349C20.7229 35.3896 18.2229 33.9462 18.2229 31.6368L18.2229 18.5852Z" fill="url(#paint2_linear_121_1612)"/>
</g>
<defs>
<linearGradient id="paint0_linear_121_1612" x1="25.3469" y1="17.0027" x2="25.3469" y2="33.5756" gradientUnits="userSpaceOnUse">
<stop stop-color="#831BEE"/>
<stop offset="1" stop-color="#FF016C"/>
</linearGradient>
<linearGradient id="paint1_linear_121_1612" x1="25.3467" y1="0.285156" x2="25.3467" y2="50.285" gradientUnits="userSpaceOnUse">
<stop stop-color="#831BEE"/>
<stop offset="1" stop-color="#FF016C"/>
</linearGradient>
<linearGradient id="paint2_linear_121_1612" x1="18.2229" y1="13.3891" x2="31.7583" y2="36.833" gradientUnits="userSpaceOnUse">
<stop stop-color="#831BEE"/>
<stop offset="1" stop-color="#E90682"/>
</linearGradient>
<clipPath id="clip0_121_1612">
<rect width="50" height="50" fill="white" transform="translate(0.34668 0.285156)"/>
</clipPath>
</defs>
</svg>
