<svg width="30" height="23" viewBox="0 0 30 23" fill="none" xmlns="http://www.w3.org/2000/svg">
<path d="M0 6C0 2.68629 2.68629 0 6 0H24C27.3137 0 30 2.68629 30 6V17C30 20.3137 27.3137 23 24 23H6C2.68629 23 0 20.3137 0 17V6Z" fill="#FFB700"/>
<path d="M2.15787 13.7456C1.57645 12.305 1.57645 10.695 2.15787 9.25442L5.37656 1.27938V1.27938C7.65474 1.27938 9.50156 3.1262 9.50156 5.40437V17.5956C9.50156 19.8738 7.65474 21.7206 5.37656 21.7206V21.7206L2.15787 13.7456Z" fill="#FF5B00"/>
<path d="M1.25156 5.40438C1.25156 3.12621 3.09839 1.27938 5.37656 1.27938V1.27938V21.7206V21.7206C3.09839 21.7206 1.25156 19.8738 1.25156 17.5956V5.40438Z" fill="#005641"/>
<path d="M10.7484 7.27938C10.7484 3.96567 13.4347 1.27938 16.7484 1.27938H22.875C26.1887 1.27938 28.875 3.96567 28.875 7.27937V15.7206C28.875 19.0343 26.1887 21.7206 22.875 21.7206H16.7484C13.4347 21.7206 10.7484 19.0343 10.7484 15.7206V7.27938Z" fill="#8D2029"/>
<path d="M27.1922 19.9621C27.1721 19.8739 27.3003 19.8357 27.3544 19.9081C27.4024 19.9725 27.4559 20.0335 27.5109 20.0771C27.7922 20.2879 28.3547 20.2687 28.6031 20.5227C28.8891 20.815 28.5797 21.2031 28.5797 21.2415V21.2415C28.5897 21.3494 28.5047 21.4416 28.3964 21.4488C28.3662 21.4508 28.3382 21.4535 28.3172 21.4571C28.1953 21.4762 28.1484 21.5817 27.9141 21.5673C27.3375 21.529 27.3609 20.9923 27.3281 20.5371C27.3 20.3646 27.2344 20.1346 27.1922 19.9621V19.9621Z" fill="#FFB700"/>
<path d="M12.4313 19.9621C12.4514 19.8739 12.3231 19.8357 12.269 19.9081C12.221 19.9725 12.1676 20.0335 12.1125 20.0771C11.8312 20.2879 11.2687 20.2687 11.0203 20.5227C10.7344 20.815 11.0437 21.2031 11.0437 21.2415V21.2415C11.0337 21.3494 11.1188 21.4416 11.227 21.4488C11.2572 21.4508 11.2852 21.4535 11.3063 21.4571C11.4281 21.4762 11.475 21.5817 11.7094 21.5673C12.2859 21.529 12.2625 20.9923 12.2953 20.5371C12.3234 20.3646 12.3891 20.1346 12.4313 19.9621V19.9621Z" fill="#FFB700"/>
<path d="M27.1922 3.03792C27.1721 3.12606 27.3003 3.16435 27.3544 3.09188C27.4024 3.02751 27.4559 2.96654 27.5109 2.92292C27.7922 2.71208 28.3547 2.73125 28.6031 2.47729C28.8891 2.185 28.5797 1.79688 28.5797 1.75854V1.75854C28.5897 1.65055 28.5047 1.55844 28.3964 1.55121C28.3662 1.54919 28.3382 1.5465 28.3172 1.54292C28.1953 1.52375 28.1484 1.41833 27.9141 1.43271C27.3375 1.47104 27.3609 2.00771 27.3281 2.46292C27.3 2.63542 27.2344 2.86542 27.1922 3.03792V3.03792Z" fill="#FFB700"/>
<path d="M12.4359 3.03792C12.4561 3.12606 12.3278 3.16435 12.2737 3.09188C12.2257 3.02751 12.1722 2.96654 12.1172 2.92292C11.8359 2.71208 11.2734 2.73125 11.025 2.47729C10.7391 2.185 11.0484 1.79688 11.0484 1.75854V1.75854C11.0384 1.65055 11.1235 1.55844 11.2317 1.55121C11.2619 1.54919 11.2899 1.5465 11.3109 1.54292C11.4328 1.52375 11.4797 1.41833 11.7141 1.43271C12.2906 1.47104 12.2672 2.00771 12.3 2.46292C12.3281 2.63542 12.3938 2.86542 12.4359 3.03792V3.03792Z" fill="#FFB700"/>
<path d="M17.0367 16.2821C17.0382 16.2821 17.0398 16.2816 17.0411 16.2808L17.0774 16.2582C17.1163 16.234 17.1675 16.2445 17.1937 16.2821V16.2821C17.2547 16.3683 17.4281 16.3635 17.5406 16.2821L17.5514 16.2734C17.5965 16.237 17.6614 16.2386 17.7047 16.2773V16.2773C17.7984 16.3683 17.9766 16.3683 18.0938 16.2773C18.1734 16.2198 18.1875 16.215 18.2344 16.2629C18.2672 16.2917 18.3609 16.3204 18.4406 16.3348C18.5906 16.354 18.5906 16.354 18.675 16.2198C18.75 16.1096 18.7594 16.0665 18.7453 15.9562L18.7172 15.7023C18.7078 15.5777 18.7125 15.5777 18.8859 15.5106V15.5106C19.0543 15.4469 19.2149 15.3618 19.326 15.2202C19.3715 15.1622 19.4062 15.1091 19.4062 15.089C19.4062 15.0794 19.3312 15.0602 19.2375 15.0506C18.8625 15.0059 18.7984 14.7983 19.0453 14.4277C19.4344 13.8048 19.6734 13.2058 19.6734 12.8273C19.6734 12.658 19.6844 12.5941 19.7062 12.6356C19.7953 12.7842 19.6359 13.4215 19.4016 13.8815L19.3495 13.9825C19.3329 14.0149 19.3613 14.052 19.3969 14.0444V14.0444C19.4437 14.03 19.7437 13.9006 20.0531 13.7569C20.9062 13.364 21.1969 13.2873 21.75 13.3112C22.2141 13.3304 22.4062 13.4215 22.7344 13.7712C22.9078 13.9629 23.0766 14.0923 23.3812 14.2888C24.0281 14.7008 24.0563 14.7392 24.0891 15.2279C24.1219 15.7167 24.1031 15.7502 23.7375 15.8317C23.4187 15.9051 23.2312 16.0489 23.175 16.2629C23.1437 16.3715 23.2062 16.3731 23.3625 16.2677L23.4024 16.2416C23.4452 16.2136 23.5027 16.2252 23.5312 16.2677V16.2677C23.6016 16.3683 23.7422 16.3683 23.8594 16.2677V16.2677C23.9147 16.2253 23.9916 16.2253 24.0469 16.2677V16.2677C24.1875 16.3875 24.375 16.3587 24.4313 16.2102C24.4406 16.1847 24.4719 16.1958 24.525 16.2437C24.6328 16.3396 24.9 16.3779 24.9281 16.3013C24.9375 16.2725 24.9187 16.2054 24.8812 16.1479C24.7266 15.9083 24.675 15.7981 24.675 15.6687C24.675 15.4867 24.7219 15.3956 24.9281 15.2519C25.1719 15.0698 25.2469 14.8398 25.0594 14.8398C24.9469 14.8398 24.8297 14.7344 24.7547 14.5667C24.6047 14.2217 24.6375 13.8383 24.8625 13.1962C25.0344 12.8182 25.1209 12.4056 25.1156 11.9888C25.1156 11.6342 25.1063 11.5767 25.0312 11.3802C24.9727 11.2436 24.9004 11.1135 24.8156 10.9921L24.8142 10.9901C24.7408 10.891 24.7557 10.7523 24.8484 10.671V10.671C25.3547 10.2446 25.2516 9.545 24.6422 9.27667C24.4547 9.19042 24.4078 9.18563 24.0797 9.18563C23.8922 9.18563 23.5875 9.21437 23.4234 9.24792C23.2032 9.28357 22.9808 9.30279 22.7578 9.30542C22.4391 9.30542 22.3828 9.29583 22.2609 9.22875C22.1344 9.16167 22.1109 9.12813 22.0875 8.96521C22.0852 8.94985 22.0794 8.93529 22.0704 8.92277V8.92277C22.0526 8.89802 22.0196 8.89079 21.9928 8.90516C21.9175 8.94541 21.7866 9.07148 21.7641 9.13292C21.7453 9.17604 21.7359 9.17125 21.6937 9.11854C21.6537 9.0665 21.6221 9.00827 21.6 8.94604C21.55 8.78951 21.6156 8.66813 21.7969 8.58188L21.8477 8.55763C21.8866 8.53908 21.8897 8.48491 21.8531 8.46208V8.46208C21.6844 8.35188 21.3938 8.42854 21.2906 8.60583C21.2578 8.65375 21.225 8.70167 21.2156 8.70167C21.2063 8.70167 21.15 8.65375 21.0938 8.59146C20.8734 8.37104 20.9484 8.04521 21.2438 7.94937C21.3984 7.89667 21.5391 7.935 21.5672 8.04521C21.6141 8.20333 21.7453 7.9925 21.7219 7.79604C21.7078 7.66667 21.7078 7.66187 21.7969 7.66187C21.9187 7.66187 22.1719 7.82479 22.2562 7.94937C22.35 8.09792 22.3406 8.33271 22.2375 8.50521L22.2137 8.54523C22.1918 8.58213 22.2234 8.62772 22.2656 8.62021V8.62021C22.4156 8.58667 22.5656 8.49083 22.6406 8.37104C22.6801 8.29474 22.7024 8.21033 22.7056 8.12406C22.7088 8.03779 22.693 7.95188 22.6594 7.87271C22.5891 7.74333 22.5984 7.72417 22.7016 7.76729C22.8703 7.83917 22.9641 7.92062 23.0297 8.05958C23.0953 8.18417 23.1 8.21292 23.0672 8.34708C23.0447 8.42877 23.0099 8.50637 22.9641 8.57708C22.9078 8.65375 22.9031 8.66812 22.95 8.66812C23.0344 8.66812 23.2031 8.58667 23.2641 8.52437C23.2969 8.48604 23.3438 8.40458 23.3672 8.33271L23.3752 8.31226C23.3901 8.27427 23.443 8.2721 23.4609 8.30875V8.30875C23.5312 8.43812 23.6719 8.55792 23.8406 8.63458C24.0234 8.71125 24.0984 8.71604 24.0047 8.64417V8.64417C23.7721 8.47438 24.0303 8.29016 24.2469 8.47987C24.3028 8.52882 24.3565 8.58044 24.4078 8.63458C24.675 8.87896 24.8438 8.96042 25.0875 8.96042C25.4016 8.96042 25.5844 8.6825 25.4437 8.41896C25.3641 8.26562 25.1812 8.24167 25.0687 8.37104C25.0219 8.42854 25.0062 8.48764 25.0219 8.54833C25.0406 8.625 25.0359 8.63458 24.9656 8.63458C24.8719 8.63458 24.6938 8.51479 24.375 8.24167C23.9313 7.85135 23.4213 7.54763 22.8703 7.34562C22.4971 7.25704 22.1116 7.23596 21.7313 7.28333C21.4313 7.34083 21.075 7.51812 20.8781 7.705C20.5359 8.04042 20.5313 8.48604 20.8641 8.89333L20.8809 8.91396C20.9272 8.97077 20.9336 9.05029 20.8969 9.11375V9.11375C20.8491 9.18857 20.8253 9.2767 20.8286 9.36597C20.832 9.45524 20.8624 9.54124 20.9156 9.61208C20.9283 9.63022 20.941 9.64731 20.953 9.66258C20.9933 9.71376 21.0398 9.70078 21.0469 9.63604V9.63604C21.0563 9.50507 21.1094 9.42201 21.2062 9.38687C21.2906 9.35333 21.3469 9.3725 21.7313 9.53062C22.1391 9.69354 22.8094 9.70312 23.5219 9.55937C23.681 9.5222 23.8434 9.50504 24.0054 9.50787C24.311 9.5132 24.6824 9.6 24.7576 9.8962C24.7955 10.0456 24.755 10.2149 24.6281 10.3596C24.5203 10.4842 24.4219 10.5321 24.0797 10.6279C23.7818 10.7085 23.4721 10.7329 23.1656 10.6998C22.6594 10.695 22.4766 10.7046 22.275 10.7477C22.0453 10.7956 21.9094 10.8004 21.2531 10.786L20.5968 10.7696C20.5622 10.7687 20.5463 10.8124 20.5734 10.834V10.834L20.6106 10.8622C20.6826 10.9168 20.7746 10.9827 20.6906 11.016V11.016C20.6437 11.0352 20.5313 11.0496 20.4422 11.0496H20.423C20.3453 11.0496 20.2795 11.1068 20.2687 11.1837V11.1837C20.262 11.2175 20.2589 11.2519 20.2593 11.2862C20.2601 11.3459 20.286 11.4377 20.2313 11.4138V11.4138C20.1984 11.3994 20.1094 11.3754 20.0297 11.361C19.9493 11.3433 19.8708 11.3177 19.7953 11.2844C19.7062 11.2365 19.6969 11.2365 19.6641 11.2987C19.6599 11.3058 19.6508 11.3161 19.6381 11.3285C19.4846 11.4791 19.3209 11.3847 19.2328 11.1885V11.1885C19.2064 11.1318 19.1815 11.0706 19.1622 11.0219C19.1405 10.967 19.1071 10.8712 19.0828 10.925V10.925C19.0688 10.949 19.05 11.0208 19.0359 11.0783C19.0191 11.1558 18.9907 11.2302 18.9516 11.2987L18.9381 11.319C18.9126 11.3572 18.8554 11.354 18.8344 11.3131V11.3131C18.7875 11.2173 18.7125 11.1119 18.6844 11.1119C18.675 11.1119 18.6641 11.1358 18.6516 11.1837C18.6281 11.2604 18.4453 11.4856 18.3984 11.4856C18.3844 11.4856 18.3703 11.4233 18.3703 11.3419C18.3703 11.3111 18.3677 11.2811 18.3633 11.257C18.3558 11.2159 18.3092 11.2093 18.3047 11.2508V11.2508C18.3047 11.3083 18.15 11.4904 18.0938 11.4904C18.0687 11.4904 18.0422 11.5064 18.0141 11.5383V11.5383C17.9466 11.6131 17.9482 11.4666 17.9245 11.3687C17.922 11.3581 17.919 11.3475 17.9156 11.3371L17.8688 11.1837C17.8625 11.1614 17.8 11.1694 17.6813 11.2077C17.4938 11.27 17.4281 11.2556 17.5266 11.179C17.5641 11.1502 17.6203 11.0496 17.6484 10.9585C17.6812 10.8627 17.7281 10.7812 17.7516 10.7717C17.7859 10.7589 17.7828 10.7781 17.7422 10.8292V10.8292C17.689 10.9025 17.6843 10.9994 17.6482 11.0825C17.6467 11.0859 17.6452 11.0893 17.6437 11.0927C17.6203 11.1454 17.5969 11.1885 17.6016 11.1933C17.6063 11.1981 17.6813 11.1694 17.7656 11.131L17.8559 11.0849C17.8832 11.0709 17.9156 11.0908 17.9156 11.1215V11.1215C17.9156 11.1598 17.9344 11.2556 17.9578 11.3371L17.968 11.3717C17.9848 11.4292 18.0488 11.4581 18.1031 11.4329V11.4329C18.2063 11.385 18.3047 11.2125 18.3047 11.0735V11.0735C18.3047 10.9892 18.3706 11.1294 18.3934 11.2106C18.3984 11.2285 18.4034 11.247 18.4078 11.2652L18.418 11.2943C18.434 11.3403 18.4942 11.3509 18.525 11.3131V11.3131C18.5672 11.2652 18.6141 11.1694 18.6328 11.1071C18.6703 10.9921 18.7266 10.9394 18.7266 11.0256C18.7266 11.0831 18.8859 11.3035 18.9141 11.2844C18.9328 11.2748 18.9609 11.1933 18.9844 11.1023C19.0312 10.9106 19.1016 10.786 19.1484 10.8148V10.8148C19.1789 10.8355 19.1608 10.8815 19.1704 10.917C19.1841 10.9677 19.2119 11.0475 19.2469 11.131L19.3688 11.4329C19.3875 11.4808 19.4062 11.4808 19.5234 11.3706C19.5488 11.3464 19.5742 11.3216 19.5965 11.2986C19.6506 11.2428 19.6975 11.1746 19.7625 11.2173V11.2173C19.8435 11.261 19.9291 11.2948 20.0174 11.3181C20.1358 11.3493 20.2266 11.2823 20.2266 11.1598V11.1598L20.2287 11.0782C20.23 11.0283 20.2761 10.9917 20.325 11.0017V11.0017C20.3719 11.016 20.4797 11.016 20.5594 11.0017V11.0017C20.6112 10.9946 20.6285 10.9284 20.5869 10.8968L20.5734 10.8867C20.5031 10.8388 20.4328 10.7765 20.4141 10.7477C20.3953 10.719 20.3344 10.6902 20.2641 10.6854C20.1276 10.6718 19.9154 10.5712 19.8039 10.4797C19.7385 10.426 19.7706 10.3886 19.8328 10.4458V10.4458C19.9641 10.5656 20.1422 10.6375 20.3016 10.6375V10.6375C20.3483 10.6375 20.3751 10.5844 20.3475 10.5468L20.3438 10.5417C20.2938 10.4673 20.2617 10.3819 20.25 10.2925C20.2406 10.1487 20.2266 10.1296 20.0812 10.029C19.997 9.96797 19.9185 9.89898 19.8469 9.82292L19.8449 9.82067C19.8096 9.78037 19.7441 9.79206 19.725 9.84208V9.84208C19.7247 9.84293 19.7244 9.84376 19.7241 9.8446C19.695 9.92194 19.6245 9.93317 19.5703 9.87083V9.87083V9.87083C19.5188 9.80977 19.4461 9.82261 19.4083 9.89302C19.4031 9.9028 19.3977 9.91302 19.3922 9.92354L19.3654 9.97639C19.3481 10.0104 19.3005 10.013 19.2797 9.98104V9.98104C19.2379 9.92232 19.1909 9.86777 19.1391 9.81812V9.81812C19.0807 9.76789 19.1156 9.74594 19.1727 9.79765C19.1876 9.81114 19.2032 9.82614 19.2188 9.84208L19.2577 9.88367C19.2896 9.9178 19.3454 9.91135 19.3688 9.87083V9.87083C19.3958 9.81439 19.4041 9.75043 19.3922 9.68875V9.68875C19.3747 9.61137 19.428 9.68946 19.4849 9.74482C19.5045 9.76398 19.5252 9.78206 19.5469 9.79896V9.79896C19.6002 9.84356 19.681 9.82816 19.7142 9.76709L19.7203 9.75583C19.7906 9.62167 19.7906 9.62167 19.8187 9.70312C19.8656 9.80375 20.1703 10.0625 20.4281 10.211C20.475 10.2366 20.4594 10.1567 20.3812 9.97146C20.359 9.90998 20.3463 9.8453 20.3438 9.77979C20.3438 9.69354 20.3203 9.65521 20.2125 9.56896C20.1457 9.52488 20.0898 9.46561 20.0492 9.39578C20.0085 9.32596 19.9842 9.24748 19.9781 9.16646C19.9767 9.15801 19.9751 9.14952 19.9733 9.14104C19.9489 9.02208 19.8761 8.97342 19.8844 9.09458V9.09458C19.8938 9.19521 19.8797 9.31979 19.8563 9.3725L19.8502 9.38808C19.8394 9.41555 19.8003 9.41476 19.7906 9.38687V9.38687C19.7719 9.34375 19.6969 9.26708 19.6266 9.21917C19.5563 9.17125 19.5047 9.12333 19.5141 9.11375C19.5234 9.10417 19.5984 9.14729 19.6781 9.20958C19.8047 9.31021 19.8281 9.31979 19.8469 9.27667C19.8656 9.22875 19.8469 9.00833 19.8094 8.855C19.7906 8.77833 19.7906 8.77833 19.8844 8.87417C19.9469 8.93486 19.9922 9.03389 20.0203 9.17125C20.0578 9.35333 20.0766 9.38687 20.2406 9.53542C20.3391 9.62646 20.4281 9.69354 20.4328 9.68875C20.4422 9.67917 20.4516 9.44917 20.4609 9.17125C20.4797 8.63937 20.4609 8.51 20.3344 8.34708V8.34708C20.2965 8.29728 20.3 8.2274 20.3428 8.1817L20.3719 8.15063C20.4874 8.03766 20.5646 7.88992 20.5922 7.72896V7.72896C20.5982 7.68713 20.5477 7.66148 20.5176 7.69106L20.4984 7.70979C20.4047 7.80083 20.3578 7.82 20.25 7.82C20.1422 7.82 20.1 7.80083 20.0297 7.72417C19.9202 7.61639 19.7866 7.53745 19.6406 7.49417C19.5875 7.475 19.5625 7.48458 19.5656 7.52292C19.5656 7.55167 19.5375 7.62833 19.5 7.70021V7.70021C19.4676 7.76177 19.3846 7.77387 19.3359 7.72414L19.2938 7.68104C19.2047 7.59958 19.1062 7.52771 19.0266 7.50854C18.8344 7.46062 18.825 7.46062 18.825 7.60917C18.8219 7.83597 18.7344 7.8759 18.5625 7.72896C18.4313 7.61396 18.3281 7.58521 18.0797 7.61875L17.984 7.62853C17.9377 7.63327 17.9084 7.68065 17.925 7.72417V7.72417C17.9531 7.79604 17.9484 7.82958 17.8875 7.91104C17.7891 8.04521 17.6625 8.10271 17.4656 8.10271C17.3719 8.10271 17.2594 8.12187 17.2125 8.14583C17.1656 8.16979 17.0437 8.19375 16.9453 8.20333C16.8516 8.21292 16.7437 8.23208 16.7109 8.24167C16.6641 8.26083 16.6641 8.24167 16.6781 8.13625C16.7016 7.97333 16.5844 7.84875 16.4109 7.84875C16.1813 7.84875 16.0781 8.05958 16.1672 8.3375V8.3375C16.1983 8.45851 16.2386 8.57887 16.3137 8.67874C16.3565 8.73567 16.4048 8.7883 16.4578 8.83583C16.5797 8.96042 16.6922 9.08979 16.7109 9.12333C16.7487 9.1733 16.7967 9.2142 16.8516 9.24312L16.8535 9.2442C16.8956 9.26766 16.9465 9.23344 16.9406 9.18563V9.18563C16.925 9.05785 16.95 9.04028 17.0156 9.13292C17.0391 9.16167 17.1 9.21437 17.1469 9.24312C17.2266 9.29104 17.2406 9.29104 17.2406 9.25271C17.2406 9.22396 17.2547 9.16167 17.2734 9.11375V9.11375C17.2861 9.0806 17.332 9.07813 17.3481 9.10975L17.3672 9.14729C17.4 9.21437 17.5078 9.36292 17.6063 9.48271C17.7984 9.70792 17.9203 9.96188 17.8594 10.0194C17.8312 10.0433 17.7656 10.0433 17.625 10.0146C17.5219 9.99542 17.3906 9.98104 17.3344 9.99062C17.2266 10.005 17.2172 9.99063 17.2875 9.90438C17.3578 9.80854 17.3438 9.79417 17.2031 9.79417C17.0391 9.79417 16.6312 9.71271 16.4719 9.65042C16.3219 9.58812 16.2844 9.6025 16.2375 9.75104L16.1578 10.0194V10.0194C16.1356 10.0876 16.1901 10.1564 16.2616 10.1503L16.2797 10.1487C16.3667 10.1394 16.4529 10.1234 16.5375 10.1008V10.1008C16.6029 10.0786 16.6379 10.1215 16.6089 10.1841C16.6041 10.1943 16.5991 10.205 16.5938 10.2158L16.5801 10.2397C16.5596 10.2757 16.5905 10.3192 16.6312 10.3117V10.3117C16.6875 10.2973 16.7719 10.2685 16.8187 10.2446C16.9031 10.2062 16.9125 10.2062 16.9781 10.3165C17.0625 10.4442 17.1141 10.4394 17.1328 10.3021C17.1453 10.1551 17.1953 10.1775 17.2828 10.3692C17.3672 10.5512 17.4516 10.6183 17.4703 10.5129C17.4797 10.4682 17.5125 10.4235 17.5687 10.3788C17.6719 10.3085 17.7453 10.3292 17.7891 10.441C17.8359 10.5608 17.7328 10.6806 17.4422 10.8627C17.173 11.0146 16.9415 11.2274 16.7652 11.4849C16.5889 11.7424 16.4725 12.0376 16.425 12.3481C16.3359 12.9135 16.6125 13.4981 17.1562 13.9246C17.4187 14.1258 17.8359 14.3367 17.8078 14.26C17.6953 13.9102 17.7 13.2537 17.8125 13.1435C17.8313 13.1244 17.8266 13.1915 17.7984 13.2921C17.7047 13.6706 17.7516 13.9677 17.9859 14.6673C18.1922 15.2998 18.1641 15.5729 17.8641 15.7502C17.7703 15.8077 17.7094 15.8173 17.4516 15.8125C17.1703 15.8125 17.1375 15.8125 17.0484 15.8892C16.953 15.99 16.8866 16.1155 16.8563 16.2518C16.849 16.2845 16.8388 16.3318 16.8712 16.3407C16.8997 16.3486 16.9535 16.3294 17.0324 16.2833C17.0337 16.2825 17.0352 16.2821 17.0367 16.2821V16.2821Z" fill="#FFB700"/>
<path d="M21.5859 16.2677L21.6106 16.2516C21.6647 16.2162 21.7362 16.2228 21.7828 16.2677V16.2677C21.8859 16.3683 22.0125 16.3635 22.1109 16.2629C22.1181 16.2556 22.1248 16.2488 22.1312 16.2426C22.1713 16.2032 22.215 16.2184 22.2422 16.2677V16.2677C22.2641 16.3092 22.3203 16.3332 22.4109 16.3396C22.5188 16.3444 22.5516 16.3396 22.5984 16.2725V16.2725C22.6239 16.2283 22.6813 16.2146 22.724 16.2425L22.7625 16.2677C23.0813 16.4785 23.25 16.2581 23.1047 15.8221C23.0344 15.6017 23.0766 15.4771 23.3063 15.1992C23.4047 15.0794 23.4844 14.95 23.4844 14.9117C23.4844 14.859 23.4656 14.8494 23.3344 14.8542C23.2125 14.8542 23.175 14.8398 23.1094 14.7679C23.0031 14.6465 23.0094 14.5092 23.1281 14.3558V14.3558C23.1789 14.291 23.1642 14.1967 23.0962 14.1504L23.0531 14.121C22.9185 14.0193 22.793 13.9054 22.6781 13.7808C22.4705 13.5328 22.176 13.3779 21.8578 13.3496L21.809 13.3443C21.7174 13.3343 21.6375 13.406 21.6375 13.4981V13.4981C21.6375 13.7138 21.7406 13.9246 22.0125 14.2792C22.3219 14.6817 22.3406 14.744 22.3547 15.271L22.3647 15.5893C22.3673 15.6702 22.3345 15.7481 22.275 15.8029V15.8029C22.1953 15.8796 22.1625 15.894 21.9 15.9083C21.6516 15.9227 21.5953 15.9371 21.525 16.0042C21.4437 16.0664 21.3871 16.1566 21.3656 16.2581C21.3516 16.33 21.3563 16.3444 21.4078 16.3444C21.4406 16.3444 21.5203 16.3108 21.5859 16.2677ZM14.9203 15.1152C14.9203 15.1159 14.9213 15.1162 14.9217 15.1156C14.9488 15.0733 14.9645 15.0244 14.9672 14.974C14.9672 14.926 14.9953 14.9069 15.1172 14.8877L15.1394 14.8848C15.1872 14.8785 15.2051 14.8187 15.1688 14.7871V14.7871C15.0516 14.6912 15.0375 14.6194 15.1406 14.6194C15.2438 14.6194 15.4125 14.514 15.4406 14.4325C15.45 14.3878 15.4438 14.351 15.4219 14.3223C15.3656 14.2552 15.2578 14.2648 15.2391 14.3415C15.2156 14.4181 15.1828 14.4181 15.0984 14.3415C14.9813 14.2217 14.9766 13.9773 15.0984 13.8335C15.15 13.7665 15.15 13.7665 15.0797 13.6946C15.0047 13.6179 14.9484 13.4742 14.9859 13.4358C14.9953 13.4262 15.0563 13.4358 15.1172 13.4598C15.2109 13.4885 15.2437 13.4885 15.2812 13.4598C15.3891 13.3687 15.2719 13.2538 15.0938 13.2825V13.2825C15.0062 13.2988 14.9578 13.2 14.8743 13.1688C14.8635 13.1647 14.8522 13.1611 14.8406 13.1579C14.7141 13.1244 14.7141 13.1244 14.7141 13.2154C14.7141 13.3112 14.6609 13.3288 14.5547 13.2681C14.4703 13.2202 14.3906 13.2585 14.3906 13.3496C14.3906 13.4358 14.4688 13.4742 14.625 13.4646C14.7375 13.4598 14.7422 13.546 14.6344 13.6706L14.6247 13.6822C14.5832 13.7322 14.5795 13.8035 14.6156 13.8575V13.8575C14.7094 13.9917 14.7 14.2169 14.6016 14.3319L14.5819 14.3532C14.5509 14.3867 14.4969 14.3834 14.4703 14.3462V14.3462C14.3953 14.2504 14.2969 14.2552 14.2687 14.3606C14.2547 14.4277 14.2688 14.4565 14.3531 14.5331C14.4094 14.581 14.4938 14.6194 14.5359 14.6194C14.6438 14.6194 14.6391 14.7104 14.5266 14.7967V14.7967C14.4918 14.8233 14.5065 14.8786 14.5499 14.8845L14.5734 14.8877C14.6484 14.9021 14.7141 14.9213 14.7141 14.9356C14.7141 14.9951 14.7994 15.1679 14.8317 15.1836C14.8344 15.185 14.8374 15.1845 14.8403 15.1835C14.8638 15.1757 14.89 15.1528 14.9189 15.1147C14.9194 15.1141 14.9203 15.1144 14.9203 15.1152V15.1152Z" fill="#FFB700"/>
<path d="M16.7109 14.32C16.7109 14.3211 16.7119 14.3219 16.713 14.3215C16.8404 14.2718 17.1094 14.0345 17.1094 13.9821C17.1094 13.9629 17.0344 13.8767 16.9406 13.7904C16.7531 13.6179 16.5422 13.316 16.4859 13.1435C16.4578 13.0477 16.3219 12.8944 15.9375 12.511L15.5336 12.1134C15.4673 12.048 15.3713 12.0225 15.2812 12.0462V12.0462C15.1969 12.0654 15.0984 12.0846 15.0609 12.0846C14.9906 12.0846 14.9906 12.0846 15.0844 12.1612V12.1612C15.1411 12.2076 15.2202 12.215 15.2845 12.1799L15.3187 12.1612C15.4453 12.0846 15.45 12.0846 15.4641 12.1469C15.4734 12.1804 15.4547 12.2427 15.4172 12.2858C15.3844 12.329 15.3656 12.3817 15.3703 12.396C15.3797 12.4152 15.3562 12.4408 15.3 12.4727C15.2062 12.5206 15.1359 12.6788 15.2109 12.6788C15.2812 12.6788 15.4312 12.4871 15.4125 12.4248V12.4248C15.404 12.3726 15.4635 12.3403 15.4657 12.3931C15.4675 12.4365 15.4521 12.4985 15.4219 12.5398C15.3844 12.5781 15.3656 12.626 15.375 12.6452C15.3813 12.6644 15.3562 12.6899 15.3 12.7219C15.2062 12.7698 15.1359 12.9279 15.2109 12.9279C15.2859 12.9279 15.4312 12.7458 15.4172 12.6788V12.6788C15.404 12.625 15.4594 12.6005 15.4655 12.6555C15.4691 12.6872 15.4648 12.7247 15.45 12.7506C15.4399 12.7663 15.4345 12.7846 15.4345 12.8033C15.4345 12.8221 15.4399 12.8404 15.45 12.856C15.4828 12.9183 15.45 13.0333 15.3891 13.0717C15.3641 13.0876 15.3828 13.1196 15.4453 13.1675C15.5391 13.2346 15.5391 13.2442 15.5391 13.5508C15.5391 13.8096 15.5484 13.8767 15.5953 13.9198C15.6359 13.9677 15.6547 13.9677 15.6516 13.9198C15.6469 13.8479 15.7453 13.8048 15.8156 13.8048C15.8391 13.8048 15.975 13.9246 16.1203 14.0683C16.2656 14.2121 16.4203 14.3415 16.4625 14.3462L16.5576 14.3639C16.5629 14.3649 16.5684 14.3654 16.5738 14.3647C16.5967 14.3613 16.6525 14.347 16.7087 14.3187C16.7097 14.3181 16.7109 14.3189 16.7109 14.32V14.32ZM15.15 13.0717C15.15 12.9902 14.9812 12.8992 14.7797 12.88C14.6156 12.856 14.6156 12.8608 14.6156 12.9423C14.6156 13.0094 14.6391 13.0381 14.7562 13.086C14.9344 13.1675 15.15 13.1579 15.15 13.0717Z" fill="#FFB700"/>
<path d="M15.3351 13.0621C15.3343 13.0621 15.3339 13.0611 15.3345 13.0605C15.4177 12.9842 15.4543 12.8992 15.4031 12.8992C15.3516 12.8992 15.1969 13.0333 15.1969 13.0908C15.1969 13.1671 15.2247 13.1628 15.3357 13.0637C15.3363 13.0631 15.336 13.0621 15.3351 13.0621V13.0621ZM15.1594 12.8177C15.1687 12.7762 15.1328 12.7362 15.0516 12.6979C14.8641 12.6165 14.6484 12.5733 14.5969 12.6165C14.4984 12.6979 14.5641 12.8033 14.7188 12.8225C14.7844 12.8273 14.8688 12.8465 14.9109 12.8656C15.0328 12.9135 15.1453 12.8896 15.1594 12.8177ZM15.157 12.5638C15.1584 12.5638 15.1595 12.5627 15.1597 12.5614C15.1676 12.5008 15.1222 12.4759 14.7844 12.3529C14.5266 12.2571 14.4141 12.305 14.4984 12.4631C14.5266 12.5158 14.5734 12.5398 14.6813 12.559C14.7609 12.5685 14.8687 12.5925 14.9203 12.6117C15.0626 12.6591 15.1406 12.6439 15.1543 12.5661C15.1545 12.5648 15.1557 12.5638 15.157 12.5638V12.5638ZM15.3305 12.329C15.3296 12.329 15.3292 12.3279 15.3298 12.3273C15.3806 12.2749 15.4219 12.2137 15.4219 12.1852C15.4219 12.1133 15.2203 12.2475 15.1922 12.3433C15.1673 12.4546 15.2136 12.4504 15.3311 12.3307C15.3317 12.33 15.3313 12.329 15.3305 12.329V12.329ZM15.1594 12.3146C15.1687 12.2379 15.05 12.1724 14.8031 12.1181C14.6219 12.0766 14.5391 12.099 14.5547 12.1852C14.5641 12.2331 14.625 12.2667 14.7891 12.3194C15.0656 12.4056 15.1453 12.4056 15.1594 12.3146ZM15.3937 11.96C15.7125 11.8163 15.7359 11.4569 15.4406 11.361C15.3219 11.3227 15.2406 11.3451 15.1969 11.4281C15.1738 11.4694 15.1738 11.5287 15.1881 11.5683C15.2023 11.6076 15.258 11.6166 15.2625 11.6581V11.6581C15.2625 11.7875 14.7844 11.8402 14.5875 11.7396C14.5172 11.706 14.4937 11.6102 14.5453 11.6102C14.5922 11.6102 14.6203 11.5144 14.5969 11.4521C14.5656 11.3563 14.4828 11.3275 14.3484 11.3658C14.0531 11.4425 14.0625 11.7971 14.3625 11.9408C14.6947 12.0639 15.0574 12.0706 15.3937 11.96Z" fill="#FFB700"/>
<path d="M15.2016 11.6821C15.2172 11.6597 15.2109 11.6374 15.1828 11.615C15.1203 11.5575 15.1234 11.4824 15.1922 11.3898C15.2484 11.3227 15.2531 11.2173 15.2719 10.1871C15.3047 8.40938 15.4359 7.0725 15.6047 6.74667C15.675 6.62208 15.6656 6.62208 15.4875 6.74667C15.2538 6.9131 15.0651 7.13728 14.9391 7.39833C14.6484 7.94937 14.55 8.69208 14.55 10.2829C14.55 11.1838 14.5547 11.3035 14.6063 11.385C14.6531 11.4713 14.6531 11.5 14.625 11.5862C14.6016 11.639 14.5922 11.6965 14.6016 11.706C14.6672 11.7683 15.1359 11.754 15.2016 11.6821ZM17.6719 9.98104C17.7824 10.0074 17.8377 9.92659 17.7894 9.82375C17.7877 9.82027 17.7861 9.8168 17.7844 9.81333C17.7281 9.68875 17.7047 9.66958 17.625 9.66958C17.2502 9.63628 16.8846 9.5323 16.5469 9.36292C16.3078 9.25271 16.2188 9.22875 16.1953 9.2575C16.1203 9.32938 16.2422 9.49708 16.4297 9.58813C16.7056 9.68977 16.9946 9.7495 17.2875 9.76542C17.4141 9.76542 17.4188 9.76542 17.3438 9.87563V9.87563C17.3232 9.9092 17.3474 9.95229 17.3867 9.95229H17.4375L17.6719 9.98104V9.98104Z" fill="#FFB700"/>
<path d="M19.3102 10.786C19.3115 10.786 19.3125 10.785 19.3124 10.7838C19.3083 10.7344 19.1745 10.6171 19.0453 10.5369C18.9375 10.4746 18.9188 10.4698 18.9188 10.5225C18.9188 10.5667 18.897 10.6506 18.8731 10.7139C18.8504 10.774 18.7944 10.7764 18.7781 10.7142V10.7142C18.7641 10.6663 18.7125 10.5704 18.6609 10.5081L18.6462 10.4893C18.6082 10.4407 18.5332 10.4455 18.5016 10.4985V10.4985C18.4359 10.604 18.3188 10.7046 18.2672 10.7046V10.7046C18.1854 10.7046 18.2893 10.5393 18.26 10.4629C18.2559 10.4523 18.2505 10.445 18.2438 10.441V10.441C18.2155 10.4246 18.2034 10.4673 18.1854 10.4946C18.1677 10.5215 18.1408 10.5552 18.1136 10.586C18.057 10.6501 17.9862 10.6404 17.9719 10.556V10.556L17.9344 10.326C17.9281 10.2717 17.9438 10.3037 17.9813 10.4219L18.0058 10.4863C18.0266 10.5406 18.1004 10.5478 18.1312 10.4985V10.4985C18.1552 10.4636 18.1749 10.4259 18.1899 10.3862C18.2024 10.3532 18.2067 10.2975 18.2391 10.3117V10.3117C18.2578 10.3213 18.2813 10.4027 18.2906 10.489L18.2959 10.5255C18.303 10.5753 18.3652 10.5938 18.3984 10.556V10.556L18.4315 10.5144C18.4906 10.44 18.5546 10.3426 18.6281 10.4027V10.4027C18.6656 10.441 18.7266 10.5225 18.7641 10.5896V10.5896C18.8069 10.6663 18.8475 10.6536 18.8634 10.5672L18.8672 10.5465L18.8859 10.4027C18.8906 10.3788 19.1391 10.5465 19.2328 10.6279C19.2891 10.6806 19.3453 10.719 19.3547 10.7094C19.3641 10.6998 19.3734 10.6231 19.3734 10.5321C19.3734 10.3979 19.3594 10.3596 19.2797 10.2877C19.1859 10.2015 19.1859 10.2015 19.1484 10.2638C19.1016 10.3452 19.05 10.3452 19.05 10.2638C19.05 10.2307 18.9913 10.1424 18.9333 10.0732C18.8735 10.0019 18.7907 10.01 18.7453 10.0913V10.0913C18.6891 10.1919 18.675 10.2015 18.6656 10.2015C18.6188 10.2015 18.3703 9.91396 18.3703 9.86604C18.3703 9.82451 18.3906 9.83729 18.4313 9.90438C18.4731 9.96731 18.5219 10.0252 18.5766 10.0769C18.6703 10.1631 18.7078 10.144 18.7453 9.97625V9.97625C18.7647 9.91291 18.8238 9.90373 18.8714 9.94975C18.949 10.0246 19.0544 10.1494 19.0734 10.2015V10.2015C19.0843 10.2267 19.1209 10.2242 19.1281 10.1976L19.1297 10.1919C19.1578 10.0897 19.1937 10.0865 19.2375 10.1823C19.2562 10.2206 19.35 10.3069 19.4437 10.3644L19.5175 10.4133C19.5669 10.446 19.6338 10.4213 19.65 10.3644V10.3644C19.675 10.3005 19.6937 10.2749 19.7062 10.2877C19.7156 10.2997 19.7086 10.3535 19.6952 10.4091C19.6736 10.4984 19.5984 10.5229 19.5234 10.4698V10.4698V10.4698C19.4749 10.434 19.4062 10.4687 19.4062 10.529V10.5369C19.4062 10.6183 19.3969 10.719 19.3875 10.7573C19.3643 10.833 19.3092 10.8527 19.3078 10.7884C19.3078 10.7872 19.3089 10.786 19.3102 10.786V10.786ZM18.4453 9.56896C18.2391 9.39646 18.2109 9.35812 18.2109 9.27187L18.2111 9.26817C18.2117 9.25705 18.2278 9.25611 18.2297 9.26708V9.26708C18.2391 9.315 18.2953 9.39167 18.3609 9.44917L18.3953 9.47622C18.4439 9.5144 18.5141 9.50663 18.5531 9.45875V9.45875C18.5953 9.41083 18.6281 9.35333 18.6281 9.33417C18.6281 9.27667 18.6375 9.28146 18.7781 9.40604C18.8207 9.44456 18.849 9.46962 18.8684 9.48285C18.9168 9.5159 18.929 9.4207 18.9275 9.36212V9.36212C18.926 9.30817 18.9085 9.25136 18.8954 9.19901C18.8782 9.13043 18.8938 9.13076 18.9422 9.2L19.0547 9.33417C19.1016 9.38687 19.1062 9.38687 19.125 9.31979C19.1391 9.27667 19.1484 9.20479 19.1484 9.15688V9.15688C19.1484 9.12605 19.187 9.11209 19.2067 9.13577L19.2562 9.19521C19.2626 9.20251 19.2686 9.20941 19.2742 9.2159C19.3544 9.30768 19.4391 9.20685 19.4391 9.085V9.085C19.4391 9.00194 19.4484 8.97639 19.4672 9.00833C19.5047 9.06583 19.4813 9.20958 19.4156 9.33417V9.33417C19.3954 9.37556 19.3374 9.37816 19.3135 9.33875L19.3078 9.32938C19.2281 9.20479 19.2 9.20479 19.1531 9.33896C19.1094 9.46674 19.0672 9.47951 19.0266 9.37729C18.9984 9.315 18.9891 9.32458 18.9703 9.45875V9.45875C18.9598 9.52339 18.8838 9.55306 18.8322 9.51266L18.7448 9.4441C18.6997 9.4088 18.6353 9.41305 18.5953 9.45396V9.45396C18.5625 9.49708 18.5344 9.54979 18.5344 9.56896C18.5312 9.61688 18.5016 9.61688 18.4453 9.56896ZM20.2758 8.91729C20.2743 8.91729 20.2728 8.9167 20.2717 8.91566C20.2023 8.84912 20.1516 8.78305 20.1609 8.77354V8.77354C20.1775 8.75665 20.1977 8.77274 20.2142 8.78963L20.3297 8.90771C20.4885 9.07964 20.4565 9.08497 20.2799 8.91893C20.2788 8.91791 20.2773 8.91729 20.2758 8.91729V8.91729ZM17.8359 8.65854C17.7703 8.56271 17.775 8.50521 17.8594 8.39979C17.9156 8.32792 17.9437 8.31833 18.0469 8.33271C18.1172 8.3375 18.2625 8.39979 18.3703 8.46687C18.4812 8.53497 18.6036 8.57981 18.7305 8.59939C18.7989 8.60995 18.8416 8.53597 18.8063 8.47646V8.47646C18.7 8.32312 18.7063 8.29597 18.825 8.395C18.9469 8.49562 19.0922 8.52437 19.4203 8.51479L19.4457 8.51403C19.4969 8.51249 19.5218 8.45078 19.4859 8.41417V8.41417C19.3594 8.28479 19.3969 8.27042 19.5422 8.39979C19.6734 8.51958 19.6687 8.52917 19.3828 8.55792C19.2636 8.57022 19.1432 8.56213 19.0266 8.53396C18.8672 8.48604 18.8578 8.49083 18.8906 8.54354C18.9125 8.57868 18.9328 8.59785 18.9516 8.60104C18.9703 8.60424 18.9812 8.61701 18.9844 8.63937C18.9844 8.70167 18.6375 8.64417 18.4688 8.56271C18.0938 8.36625 18.0469 8.34708 17.9531 8.37583C17.9277 8.38488 17.9046 8.39941 17.8851 8.41843C17.8657 8.43744 17.8506 8.4605 17.8406 8.48604C17.7797 8.64417 18 8.76875 18.0891 8.62979C18.1172 8.58667 18.1125 8.56271 18.0656 8.51C18 8.44611 18.0094 8.43014 18.0938 8.46208C18.1547 8.48604 18.1594 8.63458 18.1031 8.69208C18.0422 8.75437 17.8922 8.74 17.8359 8.65854Z" fill="#000001"/>
<path d="M19.3293 8.27042C19.33 8.27042 19.3303 8.26949 19.3298 8.26895C19.2852 8.2223 19.324 8.21287 19.5328 8.20812C19.7953 8.20333 19.9547 8.16021 20.1422 8.03562C20.2922 7.93979 20.3344 7.95896 20.1891 8.05958C20.0625 8.15542 19.8609 8.2225 19.6594 8.24167L19.4203 8.27521C19.3783 8.28441 19.3478 8.2833 19.3288 8.27188C19.3281 8.27145 19.3284 8.27042 19.3293 8.27042V8.27042Z" fill="#000001"/>
<path d="M17.0367 16.2821C17.0382 16.2821 17.0398 16.2816 17.0411 16.2808L17.0774 16.2582C17.1163 16.234 17.1675 16.2445 17.1937 16.2821V16.2821C17.2547 16.3683 17.4281 16.3635 17.5406 16.2821L17.5514 16.2734C17.5965 16.237 17.6614 16.2386 17.7047 16.2773V16.2773C17.7984 16.3683 17.9766 16.3683 18.0938 16.2773C18.1734 16.2198 18.1875 16.215 18.2344 16.2629C18.2672 16.2917 18.3609 16.3204 18.4406 16.3348C18.5906 16.354 18.5906 16.354 18.675 16.2198C18.75 16.1096 18.7594 16.0665 18.7453 15.9562L18.7172 15.7023C18.7078 15.5777 18.7125 15.5777 18.8859 15.5106V15.5106C19.0543 15.4469 19.2149 15.3618 19.326 15.2202C19.3715 15.1622 19.4062 15.1091 19.4062 15.089C19.4062 15.0794 19.3312 15.0602 19.2375 15.0506C18.8625 15.0059 18.7984 14.7983 19.0453 14.4277C19.4344 13.8048 19.6734 13.2058 19.6734 12.8273C19.6734 12.658 19.6844 12.5941 19.7062 12.6356C19.7953 12.7842 19.6359 13.4215 19.4016 13.8815L19.3495 13.9825C19.3329 14.0149 19.3613 14.052 19.3969 14.0444V14.0444C19.4437 14.03 19.7437 13.9006 20.0531 13.7569C20.9062 13.364 21.1969 13.2873 21.75 13.3112C22.2141 13.3304 22.4062 13.4215 22.7344 13.7712C22.9078 13.9629 23.0766 14.0923 23.3812 14.2888C24.0281 14.7008 24.0563 14.7392 24.0891 15.2279C24.1219 15.7167 24.1031 15.7502 23.7375 15.8317C23.4187 15.9051 23.2312 16.0489 23.175 16.2629C23.1437 16.3715 23.2062 16.3731 23.3625 16.2677L23.4024 16.2416C23.4452 16.2136 23.5027 16.2252 23.5312 16.2677V16.2677C23.6016 16.3683 23.7422 16.3683 23.8594 16.2677V16.2677C23.9147 16.2253 23.9916 16.2253 24.0469 16.2677V16.2677C24.1875 16.3875 24.375 16.3587 24.4313 16.2102C24.4406 16.1847 24.4719 16.1958 24.525 16.2437C24.6328 16.3396 24.9 16.3779 24.9281 16.3013C24.9375 16.2725 24.9187 16.2054 24.8812 16.1479C24.7266 15.9083 24.675 15.7981 24.675 15.6687C24.675 15.4867 24.7219 15.3956 24.9281 15.2519C25.1719 15.0698 25.2469 14.8398 25.0594 14.8398C24.9469 14.8398 24.8297 14.7344 24.7547 14.5667C24.6047 14.2217 24.6375 13.8383 24.8625 13.1962C25.0344 12.8182 25.1209 12.4056 25.1156 11.9888C25.1156 11.6342 25.1063 11.5767 25.0312 11.3802C24.9727 11.2436 24.9004 11.1135 24.8156 10.9921L24.8142 10.9901C24.7408 10.891 24.7557 10.7523 24.8484 10.671V10.671C25.3547 10.2446 25.2516 9.545 24.6422 9.27667C24.4547 9.19042 24.4078 9.18563 24.0797 9.18563C23.8922 9.18563 23.5875 9.21437 23.4234 9.24792C23.2032 9.28357 22.9808 9.30279 22.7578 9.30542C22.4391 9.30542 22.3828 9.29583 22.2609 9.22875C22.1344 9.16167 22.1109 9.12813 22.0875 8.96521C22.0852 8.94985 22.0794 8.93529 22.0704 8.92277V8.92277C22.0526 8.89802 22.0196 8.89079 21.9928 8.90516C21.9175 8.94541 21.7866 9.07148 21.7641 9.13292C21.7453 9.17604 21.7359 9.17125 21.6937 9.11854C21.6537 9.0665 21.6221 9.00827 21.6 8.94604C21.55 8.78951 21.6156 8.66813 21.7969 8.58188L21.8477 8.55763C21.8866 8.53908 21.8897 8.48491 21.8531 8.46208V8.46208C21.6844 8.35188 21.3938 8.42854 21.2906 8.60583C21.2578 8.65375 21.225 8.70167 21.2156 8.70167C21.2063 8.70167 21.15 8.65375 21.0938 8.59146C20.8734 8.37104 20.9484 8.04521 21.2438 7.94937C21.3984 7.89667 21.5391 7.935 21.5672 8.04521C21.6141 8.20333 21.7453 7.9925 21.7219 7.79604C21.7078 7.66667 21.7078 7.66187 21.7969 7.66187C21.9187 7.66187 22.1719 7.82479 22.2562 7.94937C22.35 8.09792 22.3406 8.33271 22.2375 8.50521L22.2137 8.54523C22.1918 8.58213 22.2234 8.62772 22.2656 8.62021V8.62021C22.4156 8.58667 22.5656 8.49083 22.6406 8.37104C22.6801 8.29474 22.7024 8.21033 22.7056 8.12406C22.7088 8.03779 22.693 7.95188 22.6594 7.87271C22.5891 7.74333 22.5984 7.72417 22.7016 7.76729C22.8703 7.83917 22.9641 7.92062 23.0297 8.05958C23.0953 8.18417 23.1 8.21292 23.0672 8.34708C23.0447 8.42877 23.0099 8.50637 22.9641 8.57708C22.9078 8.65375 22.9031 8.66812 22.95 8.66812C23.0344 8.66812 23.2031 8.58667 23.2641 8.52437C23.2969 8.48604 23.3438 8.40458 23.3672 8.33271L23.3752 8.31226C23.3901 8.27427 23.443 8.2721 23.4609 8.30875V8.30875C23.5312 8.43812 23.6719 8.55792 23.8406 8.63458C24.0234 8.71125 24.0984 8.71604 24.0047 8.64417V8.64417C23.7721 8.47438 24.0303 8.29016 24.2469 8.47987C24.3028 8.52882 24.3565 8.58044 24.4078 8.63458C24.675 8.87896 24.8438 8.96042 25.0875 8.96042C25.4016 8.96042 25.5844 8.6825 25.4437 8.41896C25.3641 8.26562 25.1812 8.24167 25.0687 8.37104C25.0219 8.42854 25.0062 8.48764 25.0219 8.54833C25.0406 8.625 25.0359 8.63458 24.9656 8.63458C24.8719 8.63458 24.6938 8.51479 24.375 8.24167C23.9313 7.85135 23.4213 7.54763 22.8703 7.34562C22.4971 7.25704 22.1116 7.23596 21.7313 7.28333C21.4313 7.34083 21.075 7.51812 20.8781 7.705C20.5359 8.04042 20.5313 8.48604 20.8641 8.89333L20.8809 8.91396C20.9272 8.97077 20.9336 9.05029 20.8969 9.11375V9.11375C20.8491 9.18857 20.8253 9.2767 20.8286 9.36597C20.832 9.45524 20.8624 9.54124 20.9156 9.61208C20.9283 9.63022 20.941 9.64731 20.953 9.66258C20.9933 9.71376 21.0398 9.70078 21.0469 9.63604V9.63604C21.0563 9.50507 21.1094 9.42201 21.2062 9.38687C21.2906 9.35333 21.3469 9.3725 21.7313 9.53062C22.1391 9.69354 22.8094 9.70312 23.5219 9.55937C23.681 9.5222 23.8434 9.50504 24.0054 9.50787C24.311 9.5132 24.6824 9.6 24.7576 9.8962C24.7955 10.0456 24.755 10.2149 24.6281 10.3596C24.5203 10.4842 24.4219 10.5321 24.0797 10.6279C23.7818 10.7085 23.4721 10.7329 23.1656 10.6998C22.6594 10.695 22.4766 10.7046 22.275 10.7477C22.0453 10.7956 21.9094 10.8004 21.2531 10.786L20.5968 10.7696C20.5622 10.7687 20.5463 10.8124 20.5734 10.834V10.834L20.6106 10.8622C20.6826 10.9168 20.7746 10.9827 20.6906 11.016V11.016C20.6437 11.0352 20.5313 11.0496 20.4422 11.0496H20.423C20.3453 11.0496 20.2795 11.1068 20.2687 11.1837V11.1837C20.262 11.2175 20.2589 11.2519 20.2593 11.2862C20.2601 11.3459 20.286 11.4377 20.2313 11.4138V11.4138C20.1984 11.3994 20.1094 11.3754 20.0297 11.361C19.9493 11.3433 19.8708 11.3177 19.7953 11.2844C19.7062 11.2365 19.6969 11.2365 19.6641 11.2987C19.6599 11.3058 19.6508 11.3161 19.6381 11.3285C19.4846 11.4791 19.3209 11.3847 19.2328 11.1885V11.1885C19.2064 11.1318 19.1815 11.0706 19.1622 11.0219C19.1405 10.967 19.1071 10.8712 19.0828 10.925V10.925C19.0688 10.949 19.05 11.0208 19.0359 11.0783C19.0191 11.1558 18.9907 11.2302 18.9516 11.2987L18.9381 11.319C18.9126 11.3572 18.8554 11.354 18.8344 11.3131V11.3131C18.7875 11.2173 18.7125 11.1119 18.6844 11.1119C18.675 11.1119 18.6641 11.1358 18.6516 11.1837C18.6281 11.2604 18.4453 11.4856 18.3984 11.4856C18.3844 11.4856 18.3703 11.4233 18.3703 11.3419C18.3703 11.3111 18.3677 11.2811 18.3633 11.257C18.3558 11.2159 18.3092 11.2093 18.3047 11.2508V11.2508C18.3047 11.3083 18.15 11.4904 18.0938 11.4904C18.0687 11.4904 18.0422 11.5064 18.0141 11.5383V11.5383C17.9466 11.6131 17.9482 11.4666 17.9245 11.3687C17.922 11.3581 17.919 11.3475 17.9156 11.3371L17.8688 11.1837C17.8625 11.1614 17.8 11.1694 17.6813 11.2077C17.4938 11.27 17.4281 11.2556 17.5266 11.179C17.5641 11.1502 17.6203 11.0496 17.6484 10.9585C17.6812 10.8627 17.7281 10.7812 17.7516 10.7717C17.7859 10.7589 17.7828 10.7781 17.7422 10.8292V10.8292C17.689 10.9025 17.6843 10.9994 17.6482 11.0825C17.6467 11.0859 17.6452 11.0893 17.6437 11.0927C17.6203 11.1454 17.5969 11.1885 17.6016 11.1933C17.6063 11.1981 17.6813 11.1694 17.7656 11.131L17.8559 11.0849C17.8832 11.0709 17.9156 11.0908 17.9156 11.1215V11.1215C17.9156 11.1598 17.9344 11.2556 17.9578 11.3371L17.968 11.3717C17.9848 11.4292 18.0488 11.4581 18.1031 11.4329V11.4329C18.2063 11.385 18.3047 11.2125 18.3047 11.0735V11.0735C18.3047 10.9892 18.3706 11.1294 18.3934 11.2106C18.3984 11.2285 18.4034 11.247 18.4078 11.2652L18.418 11.2943C18.434 11.3403 18.4942 11.3509 18.525 11.3131V11.3131C18.5672 11.2652 18.6141 11.1694 18.6328 11.1071C18.6703 10.9921 18.7266 10.9394 18.7266 11.0256C18.7266 11.0831 18.8859 11.3035 18.9141 11.2844C18.9328 11.2748 18.9609 11.1933 18.9844 11.1023C19.0312 10.9106 19.1016 10.786 19.1484 10.8148V10.8148C19.1789 10.8355 19.1608 10.8815 19.1704 10.917C19.1841 10.9677 19.2119 11.0475 19.2469 11.131L19.3688 11.4329C19.3875 11.4808 19.4062 11.4808 19.5234 11.3706C19.5488 11.3464 19.5742 11.3216 19.5965 11.2986C19.6506 11.2428 19.6975 11.1746 19.7625 11.2173V11.2173C19.8435 11.261 19.9291 11.2948 20.0174 11.3181C20.1358 11.3493 20.2266 11.2823 20.2266 11.1598V11.1598L20.2287 11.0782C20.23 11.0283 20.2761 10.9917 20.325 11.0017V11.0017C20.3719 11.016 20.4797 11.016 20.5594 11.0017V11.0017C20.6112 10.9946 20.6285 10.9284 20.5869 10.8968L20.5734 10.8867C20.5031 10.8388 20.4328 10.7765 20.4141 10.7477C20.3953 10.719 20.3344 10.6902 20.2641 10.6854C20.1276 10.6718 19.9154 10.5712 19.8039 10.4797C19.7385 10.426 19.7706 10.3886 19.8328 10.4458V10.4458C19.9641 10.5656 20.1422 10.6375 20.3016 10.6375V10.6375C20.3483 10.6375 20.3751 10.5844 20.3475 10.5468L20.3438 10.5417C20.2938 10.4673 20.2617 10.3819 20.25 10.2925C20.2406 10.1487 20.2266 10.1296 20.0812 10.029C19.997 9.96797 19.9185 9.89898 19.8469 9.82292L19.8449 9.82067C19.8096 9.78037 19.7441 9.79206 19.725 9.84208V9.84208C19.7247 9.84293 19.7244 9.84376 19.7241 9.8446C19.695 9.92194 19.6245 9.93317 19.5703 9.87083V9.87083V9.87083C19.5188 9.80977 19.4461 9.82261 19.4083 9.89302C19.4031 9.9028 19.3977 9.91302 19.3922 9.92354L19.3654 9.97639C19.3481 10.0104 19.3005 10.013 19.2797 9.98104V9.98104C19.2379 9.92232 19.1909 9.86777 19.1391 9.81812V9.81812C19.0807 9.76789 19.1156 9.74594 19.1727 9.79765C19.1876 9.81114 19.2032 9.82614 19.2188 9.84208L19.2577 9.88367C19.2896 9.9178 19.3454 9.91135 19.3688 9.87083V9.87083C19.3958 9.81439 19.4041 9.75043 19.3922 9.68875V9.68875C19.3747 9.61137 19.428 9.68946 19.4849 9.74482C19.5045 9.76398 19.5252 9.78206 19.5469 9.79896V9.79896C19.6002 9.84356 19.681 9.82816 19.7142 9.76709L19.7203 9.75583C19.7906 9.62167 19.7906 9.62167 19.8187 9.70312C19.8656 9.80375 20.1703 10.0625 20.4281 10.211C20.475 10.2366 20.4594 10.1567 20.3812 9.97146C20.359 9.90998 20.3463 9.8453 20.3438 9.77979C20.3438 9.69354 20.3203 9.65521 20.2125 9.56896C20.1457 9.52488 20.0898 9.46561 20.0492 9.39578C20.0085 9.32596 19.9842 9.24748 19.9781 9.16646C19.9767 9.15801 19.9751 9.14952 19.9733 9.14104C19.9489 9.02208 19.8761 8.97342 19.8844 9.09458V9.09458C19.8938 9.19521 19.8797 9.31979 19.8563 9.3725L19.8502 9.38808C19.8394 9.41555 19.8003 9.41476 19.7906 9.38687V9.38687C19.7719 9.34375 19.6969 9.26708 19.6266 9.21917C19.5563 9.17125 19.5047 9.12333 19.5141 9.11375C19.5234 9.10417 19.5984 9.14729 19.6781 9.20958C19.8047 9.31021 19.8281 9.31979 19.8469 9.27667C19.8656 9.22875 19.8469 9.00833 19.8094 8.855C19.7906 8.77833 19.7906 8.77833 19.8844 8.87417C19.9469 8.93486 19.9922 9.03389 20.0203 9.17125C20.0578 9.35333 20.0766 9.38687 20.2406 9.53542C20.3391 9.62646 20.4281 9.69354 20.4328 9.68875C20.4422 9.67917 20.4516 9.44917 20.4609 9.17125C20.4797 8.63937 20.4609 8.51 20.3344 8.34708V8.34708C20.2965 8.29728 20.3 8.2274 20.3428 8.1817L20.3719 8.15063C20.4874 8.03766 20.5646 7.88992 20.5922 7.72896V7.72896C20.5982 7.68713 20.5477 7.66148 20.5176 7.69106L20.4984 7.70979C20.4047 7.80083 20.3578 7.82 20.25 7.82C20.1422 7.82 20.1 7.80083 20.0297 7.72417C19.9202 7.61639 19.7866 7.53745 19.6406 7.49417C19.5875 7.475 19.5625 7.48458 19.5656 7.52292C19.5656 7.55167 19.5375 7.62833 19.5 7.70021V7.70021C19.4676 7.76177 19.3846 7.77387 19.3359 7.72414L19.2938 7.68104C19.2047 7.59958 19.1062 7.52771 19.0266 7.50854C18.8344 7.46062 18.825 7.46062 18.825 7.60917C18.8219 7.83597 18.7344 7.8759 18.5625 7.72896C18.4313 7.61396 18.3281 7.58521 18.0797 7.61875L17.984 7.62853C17.9377 7.63327 17.9084 7.68065 17.925 7.72417V7.72417C17.9531 7.79604 17.9484 7.82958 17.8875 7.91104C17.7891 8.04521 17.6625 8.10271 17.4656 8.10271C17.3719 8.10271 17.2594 8.12187 17.2125 8.14583C17.1656 8.16979 17.0437 8.19375 16.9453 8.20333C16.8516 8.21292 16.7437 8.23208 16.7109 8.24167C16.6641 8.26083 16.6641 8.24167 16.6781 8.13625C16.7016 7.97333 16.5844 7.84875 16.4109 7.84875C16.1813 7.84875 16.0781 8.05958 16.1672 8.3375V8.3375C16.1983 8.45851 16.2386 8.57887 16.3137 8.67874C16.3565 8.73567 16.4048 8.7883 16.4578 8.83583C16.5797 8.96042 16.6922 9.08979 16.7109 9.12333C16.7487 9.1733 16.7967 9.2142 16.8516 9.24312L16.8535 9.2442C16.8956 9.26766 16.9465 9.23344 16.9406 9.18563V9.18563C16.925 9.05785 16.95 9.04028 17.0156 9.13292C17.0391 9.16167 17.1 9.21437 17.1469 9.24312C17.2266 9.29104 17.2406 9.29104 17.2406 9.25271C17.2406 9.22396 17.2547 9.16167 17.2734 9.11375V9.11375C17.2861 9.0806 17.332 9.07813 17.3481 9.10975L17.3672 9.14729C17.4 9.21437 17.5078 9.36292 17.6063 9.48271C17.7984 9.70792 17.9203 9.96188 17.8594 10.0194C17.8312 10.0433 17.7656 10.0433 17.625 10.0146C17.5219 9.99542 17.3906 9.98104 17.3344 9.99062C17.2266 10.005 17.2172 9.99063 17.2875 9.90438C17.3578 9.80854 17.3438 9.79417 17.2031 9.79417C17.0391 9.79417 16.6312 9.71271 16.4719 9.65042C16.3219 9.58812 16.2844 9.6025 16.2375 9.75104L16.1578 10.0194V10.0194C16.1356 10.0876 16.1901 10.1564 16.2616 10.1503L16.2797 10.1487C16.3667 10.1394 16.4529 10.1234 16.5375 10.1008V10.1008C16.6029 10.0786 16.6379 10.1215 16.6089 10.1841C16.6041 10.1943 16.5991 10.205 16.5938 10.2158L16.5801 10.2397C16.5596 10.2757 16.5905 10.3192 16.6312 10.3117V10.3117C16.6875 10.2973 16.7719 10.2685 16.8187 10.2446C16.9031 10.2062 16.9125 10.2062 16.9781 10.3165C17.0625 10.4442 17.1141 10.4394 17.1328 10.3021C17.1453 10.1551 17.1953 10.1775 17.2828 10.3692C17.3672 10.5512 17.4516 10.6183 17.4703 10.5129C17.4797 10.4682 17.5125 10.4235 17.5687 10.3788C17.6719 10.3085 17.7453 10.3292 17.7891 10.441C17.8359 10.5608 17.7328 10.6806 17.4422 10.8627C17.173 11.0146 16.9415 11.2274 16.7652 11.4849C16.5889 11.7424 16.4725 12.0376 16.425 12.3481C16.3359 12.9135 16.6125 13.4981 17.1562 13.9246C17.4187 14.1258 17.8359 14.3367 17.8078 14.26C17.6953 13.9102 17.7 13.2537 17.8125 13.1435C17.8313 13.1244 17.8266 13.1915 17.7984 13.2921C17.7047 13.6706 17.7516 13.9677 17.9859 14.6673C18.1922 15.2998 18.1641 15.5729 17.8641 15.7502C17.7703 15.8077 17.7094 15.8173 17.4516 15.8125C17.1703 15.8125 17.1375 15.8125 17.0484 15.8892C16.953 15.99 16.8866 16.1155 16.8563 16.2518C16.849 16.2845 16.8388 16.3318 16.8712 16.3407C16.8997 16.3486 16.9535 16.3294 17.0324 16.2833C17.0337 16.2825 17.0352 16.2821 17.0367 16.2821V16.2821Z" fill="#FFB700"/>
<path d="M21.5859 16.2677L21.6106 16.2516C21.6647 16.2162 21.7362 16.2228 21.7828 16.2677V16.2677C21.8859 16.3683 22.0125 16.3635 22.1109 16.2629C22.1181 16.2556 22.1248 16.2488 22.1312 16.2426C22.1713 16.2032 22.215 16.2184 22.2422 16.2677V16.2677C22.2641 16.3092 22.3203 16.3332 22.4109 16.3396C22.5188 16.3444 22.5516 16.3396 22.5984 16.2725V16.2725C22.6239 16.2283 22.6813 16.2146 22.724 16.2425L22.7625 16.2677C23.0813 16.4785 23.25 16.2581 23.1047 15.8221C23.0344 15.6017 23.0766 15.4771 23.3063 15.1992C23.4047 15.0794 23.4844 14.95 23.4844 14.9117C23.4844 14.859 23.4656 14.8494 23.3344 14.8542C23.2125 14.8542 23.175 14.8398 23.1094 14.7679C23.0031 14.6465 23.0094 14.5092 23.1281 14.3558V14.3558C23.1789 14.291 23.1642 14.1967 23.0962 14.1504L23.0531 14.121C22.9185 14.0193 22.793 13.9054 22.6781 13.7808C22.4705 13.5328 22.176 13.3779 21.8578 13.3496L21.809 13.3443C21.7174 13.3343 21.6375 13.406 21.6375 13.4981V13.4981C21.6375 13.7138 21.7406 13.9246 22.0125 14.2792C22.3219 14.6817 22.3406 14.744 22.3547 15.271L22.3647 15.5893C22.3673 15.6702 22.3345 15.7481 22.275 15.8029V15.8029C22.1953 15.8796 22.1625 15.894 21.9 15.9083C21.6516 15.9227 21.5953 15.9371 21.525 16.0042C21.4437 16.0664 21.3871 16.1566 21.3656 16.2581C21.3516 16.33 21.3563 16.3444 21.4078 16.3444C21.4406 16.3444 21.5203 16.3108 21.5859 16.2677ZM14.9203 15.1152C14.9203 15.1159 14.9213 15.1162 14.9217 15.1156C14.9488 15.0733 14.9645 15.0244 14.9672 14.974C14.9672 14.926 14.9953 14.9069 15.1172 14.8877L15.1394 14.8848C15.1872 14.8785 15.2051 14.8187 15.1688 14.7871V14.7871C15.0516 14.6912 15.0375 14.6194 15.1406 14.6194C15.2438 14.6194 15.4125 14.514 15.4406 14.4325C15.45 14.3878 15.4438 14.351 15.4219 14.3223C15.3656 14.2552 15.2578 14.2648 15.2391 14.3415C15.2156 14.4181 15.1828 14.4181 15.0984 14.3415C14.9813 14.2217 14.9766 13.9773 15.0984 13.8335C15.15 13.7665 15.15 13.7665 15.0797 13.6946C15.0047 13.6179 14.9484 13.4742 14.9859 13.4358C14.9953 13.4262 15.0563 13.4358 15.1172 13.4598C15.2109 13.4885 15.2437 13.4885 15.2812 13.4598C15.3891 13.3687 15.2719 13.2538 15.0938 13.2825V13.2825C15.0062 13.2988 14.9578 13.2 14.8743 13.1688C14.8635 13.1647 14.8522 13.1611 14.8406 13.1579C14.7141 13.1244 14.7141 13.1244 14.7141 13.2154C14.7141 13.3112 14.6609 13.3288 14.5547 13.2681C14.4703 13.2202 14.3906 13.2585 14.3906 13.3496C14.3906 13.4358 14.4688 13.4742 14.625 13.4646C14.7375 13.4598 14.7422 13.546 14.6344 13.6706L14.6247 13.6822C14.5832 13.7322 14.5795 13.8035 14.6156 13.8575V13.8575C14.7094 13.9917 14.7 14.2169 14.6016 14.3319L14.5819 14.3532C14.5509 14.3867 14.4969 14.3834 14.4703 14.3462V14.3462C14.3953 14.2504 14.2969 14.2552 14.2687 14.3606C14.2547 14.4277 14.2688 14.4565 14.3531 14.5331C14.4094 14.581 14.4938 14.6194 14.5359 14.6194C14.6438 14.6194 14.6391 14.7104 14.5266 14.7967V14.7967C14.4918 14.8233 14.5065 14.8786 14.5499 14.8845L14.5734 14.8877C14.6484 14.9021 14.7141 14.9213 14.7141 14.9356C14.7141 14.9951 14.7994 15.1679 14.8317 15.1836C14.8344 15.185 14.8374 15.1845 14.8403 15.1835C14.8638 15.1757 14.89 15.1528 14.9189 15.1147C14.9194 15.1141 14.9203 15.1144 14.9203 15.1152V15.1152Z" fill="#FFB700"/>
<path d="M16.7109 14.32C16.7109 14.3211 16.7119 14.3219 16.713 14.3215C16.8404 14.2718 17.1094 14.0345 17.1094 13.9821C17.1094 13.9629 17.0344 13.8767 16.9406 13.7904C16.7531 13.6179 16.5422 13.316 16.4859 13.1435C16.4578 13.0477 16.3219 12.8944 15.9375 12.511L15.5336 12.1134C15.4673 12.048 15.3713 12.0225 15.2812 12.0462V12.0462C15.1969 12.0654 15.0984 12.0846 15.0609 12.0846C14.9906 12.0846 14.9906 12.0846 15.0844 12.1612V12.1612C15.1411 12.2076 15.2202 12.215 15.2845 12.1799L15.3187 12.1612C15.4453 12.0846 15.45 12.0846 15.4641 12.1469C15.4734 12.1804 15.4547 12.2427 15.4172 12.2858C15.3844 12.329 15.3656 12.3817 15.3703 12.396C15.3797 12.4152 15.3562 12.4408 15.3 12.4727C15.2062 12.5206 15.1359 12.6788 15.2109 12.6788C15.2812 12.6788 15.4312 12.4871 15.4125 12.4248V12.4248C15.404 12.3726 15.4635 12.3403 15.4657 12.3931C15.4675 12.4365 15.4521 12.4985 15.4219 12.5398C15.3844 12.5781 15.3656 12.626 15.375 12.6452C15.3813 12.6644 15.3562 12.6899 15.3 12.7219C15.2062 12.7698 15.1359 12.9279 15.2109 12.9279C15.2859 12.9279 15.4312 12.7458 15.4172 12.6788V12.6788C15.404 12.625 15.4594 12.6005 15.4655 12.6555C15.4691 12.6872 15.4648 12.7247 15.45 12.7506C15.4399 12.7663 15.4345 12.7846 15.4345 12.8033C15.4345 12.8221 15.4399 12.8404 15.45 12.856C15.4828 12.9183 15.45 13.0333 15.3891 13.0717C15.3641 13.0876 15.3828 13.1196 15.4453 13.1675C15.5391 13.2346 15.5391 13.2442 15.5391 13.5508C15.5391 13.8096 15.5484 13.8767 15.5953 13.9198C15.6359 13.9677 15.6547 13.9677 15.6516 13.9198C15.6469 13.8479 15.7453 13.8048 15.8156 13.8048C15.8391 13.8048 15.975 13.9246 16.1203 14.0683C16.2656 14.2121 16.4203 14.3415 16.4625 14.3462L16.5576 14.3639C16.5629 14.3649 16.5684 14.3654 16.5738 14.3647C16.5967 14.3613 16.6525 14.347 16.7087 14.3187C16.7097 14.3181 16.7109 14.3189 16.7109 14.32V14.32ZM15.15 13.0717C15.15 12.9902 14.9812 12.8992 14.7797 12.88C14.6156 12.856 14.6156 12.8608 14.6156 12.9423C14.6156 13.0094 14.6391 13.0381 14.7562 13.086C14.9344 13.1675 15.15 13.1579 15.15 13.0717Z" fill="#FFB700"/>
<path d="M15.3351 13.0621C15.3343 13.0621 15.3339 13.0611 15.3345 13.0605C15.4177 12.9842 15.4543 12.8992 15.4031 12.8992C15.3516 12.8992 15.1969 13.0333 15.1969 13.0908C15.1969 13.1671 15.2247 13.1628 15.3357 13.0637C15.3363 13.0631 15.336 13.0621 15.3351 13.0621V13.0621ZM15.1594 12.8177C15.1687 12.7762 15.1328 12.7362 15.0516 12.6979C14.8641 12.6165 14.6484 12.5733 14.5969 12.6165C14.4984 12.6979 14.5641 12.8033 14.7188 12.8225C14.7844 12.8273 14.8688 12.8465 14.9109 12.8656C15.0328 12.9135 15.1453 12.8896 15.1594 12.8177ZM15.157 12.5638C15.1584 12.5638 15.1595 12.5627 15.1597 12.5614C15.1676 12.5008 15.1222 12.4759 14.7844 12.3529C14.5266 12.2571 14.4141 12.305 14.4984 12.4631C14.5266 12.5158 14.5734 12.5398 14.6813 12.559C14.7609 12.5685 14.8687 12.5925 14.9203 12.6117C15.0626 12.6591 15.1406 12.6439 15.1543 12.5661C15.1545 12.5648 15.1557 12.5638 15.157 12.5638V12.5638ZM15.3305 12.329C15.3296 12.329 15.3292 12.3279 15.3298 12.3273C15.3806 12.2749 15.4219 12.2137 15.4219 12.1852C15.4219 12.1133 15.2203 12.2475 15.1922 12.3433C15.1673 12.4546 15.2136 12.4504 15.3311 12.3307C15.3317 12.33 15.3313 12.329 15.3305 12.329V12.329ZM15.1594 12.3146C15.1687 12.2379 15.05 12.1724 14.8031 12.1181C14.6219 12.0766 14.5391 12.099 14.5547 12.1852C14.5641 12.2331 14.625 12.2667 14.7891 12.3194C15.0656 12.4056 15.1453 12.4056 15.1594 12.3146ZM15.3937 11.96C15.7125 11.8163 15.7359 11.4569 15.4406 11.361C15.3219 11.3227 15.2406 11.3451 15.1969 11.4281C15.1738 11.4694 15.1738 11.5287 15.1881 11.5683C15.2023 11.6076 15.258 11.6166 15.2625 11.6581V11.6581C15.2625 11.7875 14.7844 11.8402 14.5875 11.7396C14.5172 11.706 14.4937 11.6102 14.5453 11.6102C14.5922 11.6102 14.6203 11.5144 14.5969 11.4521C14.5656 11.3563 14.4828 11.3275 14.3484 11.3658C14.0531 11.4425 14.0625 11.7971 14.3625 11.9408C14.6947 12.0639 15.0574 12.0706 15.3937 11.96Z" fill="#FFB700"/>
<path d="M15.2016 11.6821C15.2172 11.6597 15.2109 11.6374 15.1828 11.615C15.1203 11.5575 15.1234 11.4824 15.1922 11.3898C15.2484 11.3227 15.2531 11.2173 15.2719 10.1871C15.3047 8.40938 15.4359 7.0725 15.6047 6.74667C15.675 6.62208 15.6656 6.62208 15.4875 6.74667C15.2538 6.9131 15.0651 7.13728 14.9391 7.39833C14.6484 7.94937 14.55 8.69208 14.55 10.2829C14.55 11.1838 14.5547 11.3035 14.6063 11.385C14.6531 11.4713 14.6531 11.5 14.625 11.5862C14.6016 11.639 14.5922 11.6965 14.6016 11.706C14.6672 11.7683 15.1359 11.754 15.2016 11.6821ZM17.6719 9.98104C17.7824 10.0074 17.8377 9.92659 17.7894 9.82375C17.7877 9.82027 17.7861 9.8168 17.7844 9.81333C17.7281 9.68875 17.7047 9.66958 17.625 9.66958C17.2502 9.63628 16.8846 9.5323 16.5469 9.36292C16.3078 9.25271 16.2188 9.22875 16.1953 9.2575C16.1203 9.32938 16.2422 9.49708 16.4297 9.58813C16.7056 9.68977 16.9946 9.7495 17.2875 9.76542C17.4141 9.76542 17.4188 9.76542 17.3438 9.87563V9.87563C17.3232 9.9092 17.3474 9.95229 17.3867 9.95229H17.4375L17.6719 9.98104V9.98104Z" fill="#FFB700"/>
<path d="M19.3102 10.786C19.3115 10.786 19.3125 10.785 19.3124 10.7838C19.3083 10.7344 19.1745 10.6171 19.0453 10.5369C18.9375 10.4746 18.9188 10.4698 18.9188 10.5225C18.9188 10.5667 18.897 10.6506 18.8731 10.7139C18.8504 10.774 18.7944 10.7764 18.7781 10.7142V10.7142C18.7641 10.6663 18.7125 10.5704 18.6609 10.5081L18.6462 10.4893C18.6082 10.4407 18.5332 10.4455 18.5016 10.4985V10.4985C18.4359 10.604 18.3188 10.7046 18.2672 10.7046V10.7046C18.1854 10.7046 18.2893 10.5393 18.26 10.4629C18.2559 10.4523 18.2505 10.445 18.2438 10.441V10.441C18.2155 10.4246 18.2034 10.4673 18.1854 10.4946C18.1677 10.5215 18.1408 10.5552 18.1136 10.586C18.057 10.6501 17.9862 10.6404 17.9719 10.556V10.556L17.9344 10.326C17.9281 10.2717 17.9438 10.3037 17.9813 10.4219L18.0058 10.4863C18.0266 10.5406 18.1004 10.5478 18.1312 10.4985V10.4985C18.1552 10.4636 18.1749 10.4259 18.1899 10.3862C18.2024 10.3532 18.2067 10.2975 18.2391 10.3117V10.3117C18.2578 10.3213 18.2813 10.4027 18.2906 10.489L18.2959 10.5255C18.303 10.5753 18.3652 10.5938 18.3984 10.556V10.556L18.4315 10.5144C18.4906 10.44 18.5546 10.3426 18.6281 10.4027V10.4027C18.6656 10.441 18.7266 10.5225 18.7641 10.5896V10.5896C18.8069 10.6663 18.8475 10.6536 18.8634 10.5672L18.8672 10.5465L18.8859 10.4027C18.8906 10.3788 19.1391 10.5465 19.2328 10.6279C19.2891 10.6806 19.3453 10.719 19.3547 10.7094C19.3641 10.6998 19.3734 10.6231 19.3734 10.5321C19.3734 10.3979 19.3594 10.3596 19.2797 10.2877C19.1859 10.2015 19.1859 10.2015 19.1484 10.2638C19.1016 10.3452 19.05 10.3452 19.05 10.2638C19.05 10.2307 18.9913 10.1424 18.9333 10.0732C18.8735 10.0019 18.7907 10.01 18.7453 10.0913V10.0913C18.6891 10.1919 18.675 10.2015 18.6656 10.2015C18.6188 10.2015 18.3703 9.91396 18.3703 9.86604C18.3703 9.82451 18.3906 9.83729 18.4313 9.90438C18.4731 9.96731 18.5219 10.0252 18.5766 10.0769C18.6703 10.1631 18.7078 10.144 18.7453 9.97625V9.97625C18.7647 9.91291 18.8238 9.90373 18.8714 9.94975C18.949 10.0246 19.0544 10.1494 19.0734 10.2015V10.2015C19.0843 10.2267 19.1209 10.2242 19.1281 10.1976L19.1297 10.1919C19.1578 10.0897 19.1937 10.0865 19.2375 10.1823C19.2562 10.2206 19.35 10.3069 19.4437 10.3644L19.5175 10.4133C19.5669 10.446 19.6338 10.4213 19.65 10.3644V10.3644C19.675 10.3005 19.6937 10.2749 19.7062 10.2877C19.7156 10.2997 19.7086 10.3535 19.6952 10.4091C19.6736 10.4984 19.5984 10.5229 19.5234 10.4698V10.4698V10.4698C19.4749 10.434 19.4062 10.4687 19.4062 10.529V10.5369C19.4062 10.6183 19.3969 10.719 19.3875 10.7573C19.3643 10.833 19.3092 10.8527 19.3078 10.7884C19.3078 10.7872 19.3089 10.786 19.3102 10.786V10.786ZM18.4453 9.56896C18.2391 9.39646 18.2109 9.35812 18.2109 9.27187L18.2111 9.26817C18.2117 9.25705 18.2278 9.25611 18.2297 9.26708V9.26708C18.2391 9.315 18.2953 9.39167 18.3609 9.44917L18.3953 9.47622C18.4439 9.5144 18.5141 9.50663 18.5531 9.45875V9.45875C18.5953 9.41083 18.6281 9.35333 18.6281 9.33417C18.6281 9.27667 18.6375 9.28146 18.7781 9.40604C18.8207 9.44456 18.849 9.46962 18.8684 9.48285C18.9168 9.5159 18.929 9.4207 18.9275 9.36212V9.36212C18.926 9.30817 18.9085 9.25136 18.8954 9.19901C18.8782 9.13043 18.8938 9.13076 18.9422 9.2L19.0547 9.33417C19.1016 9.38687 19.1062 9.38687 19.125 9.31979C19.1391 9.27667 19.1484 9.20479 19.1484 9.15688V9.15688C19.1484 9.12605 19.187 9.11209 19.2067 9.13577L19.2562 9.19521C19.2626 9.20251 19.2686 9.20941 19.2742 9.2159C19.3544 9.30768 19.4391 9.20685 19.4391 9.085V9.085C19.4391 9.00194 19.4484 8.97639 19.4672 9.00833C19.5047 9.06583 19.4813 9.20958 19.4156 9.33417V9.33417C19.3954 9.37556 19.3374 9.37816 19.3135 9.33875L19.3078 9.32938C19.2281 9.20479 19.2 9.20479 19.1531 9.33896C19.1094 9.46674 19.0672 9.47951 19.0266 9.37729C18.9984 9.315 18.9891 9.32458 18.9703 9.45875V9.45875C18.9598 9.52339 18.8838 9.55306 18.8322 9.51266L18.7448 9.4441C18.6997 9.4088 18.6353 9.41305 18.5953 9.45396V9.45396C18.5625 9.49708 18.5344 9.54979 18.5344 9.56896C18.5312 9.61688 18.5016 9.61688 18.4453 9.56896ZM20.2758 8.91729C20.2743 8.91729 20.2728 8.9167 20.2717 8.91566C20.2023 8.84912 20.1516 8.78305 20.1609 8.77354V8.77354C20.1775 8.75665 20.1977 8.77274 20.2142 8.78963L20.3297 8.90771C20.4885 9.07964 20.4565 9.08497 20.2799 8.91893C20.2788 8.91791 20.2773 8.91729 20.2758 8.91729V8.91729ZM17.8359 8.65854C17.7703 8.56271 17.775 8.50521 17.8594 8.39979C17.9156 8.32792 17.9437 8.31833 18.0469 8.33271C18.1172 8.3375 18.2625 8.39979 18.3703 8.46687C18.4812 8.53497 18.6036 8.57981 18.7305 8.59939C18.7989 8.60995 18.8416 8.53597 18.8063 8.47646V8.47646C18.7 8.32312 18.7063 8.29597 18.825 8.395C18.9469 8.49562 19.0922 8.52437 19.4203 8.51479L19.4457 8.51403C19.4969 8.51249 19.5218 8.45078 19.4859 8.41417V8.41417C19.3594 8.28479 19.3969 8.27042 19.5422 8.39979C19.6734 8.51958 19.6687 8.52917 19.3828 8.55792C19.2636 8.57022 19.1432 8.56213 19.0266 8.53396C18.8672 8.48604 18.8578 8.49083 18.8906 8.54354C18.9125 8.57868 18.9328 8.59785 18.9516 8.60104C18.9703 8.60424 18.9812 8.61701 18.9844 8.63937C18.9844 8.70167 18.6375 8.64417 18.4688 8.56271C18.0938 8.36625 18.0469 8.34708 17.9531 8.37583C17.9277 8.38488 17.9046 8.39941 17.8851 8.41843C17.8657 8.43744 17.8506 8.4605 17.8406 8.48604C17.7797 8.64417 18 8.76875 18.0891 8.62979C18.1172 8.58667 18.1125 8.56271 18.0656 8.51C18 8.44611 18.0094 8.43014 18.0938 8.46208C18.1547 8.48604 18.1594 8.63458 18.1031 8.69208C18.0422 8.75437 17.8922 8.74 17.8359 8.65854Z" fill="#000001"/>
<path d="M19.3293 8.27042C19.33 8.27042 19.3303 8.26949 19.3298 8.26895C19.2852 8.2223 19.324 8.21287 19.5328 8.20812C19.7953 8.20333 19.9547 8.16021 20.1422 8.03562C20.2922 7.93979 20.3344 7.95896 20.1891 8.05958C20.0625 8.15542 19.8609 8.2225 19.6594 8.24167L19.4203 8.27521C19.3783 8.28441 19.3478 8.2833 19.3288 8.27188C19.3281 8.27145 19.3284 8.27042 19.3293 8.27042V8.27042Z" fill="#000001"/>
</svg>
